<mxfile host="Electron" agent="Mozilla/5.0 (Macintosh; Intel Mac OS X 10_15_7) AppleWebKit/537.36 (KHTML, like Gecko) draw.io/27.0.9 Chrome/134.0.6998.205 Electron/35.4.0 Safari/537.36" version="27.0.9" pages="2">
  <diagram name="Dynamic-Provisioning" id="IDKRQ5caO0-z31qgIa3j">
    <mxGraphModel dx="1545" dy="2005" grid="1" gridSize="10" guides="1" tooltips="1" connect="1" arrows="1" fold="1" page="1" pageScale="1" pageWidth="827" pageHeight="1169" math="0" shadow="0">
      <root>
        <mxCell id="0" />
        <mxCell id="1" parent="0" />
        <mxCell id="nAj18vZaa3cp3x-qRwEU-2" value="자동 생성" style="fillColor=none;strokeColor=#5A6C86;dashed=1;verticalAlign=top;fontStyle=0;fontColor=#5A6C86;whiteSpace=wrap;html=1;" vertex="1" parent="1">
          <mxGeometry x="570" y="10" width="350" height="320" as="geometry" />
        </mxCell>
        <mxCell id="AJm3aPvggbGKYEIz6-j--7" style="edgeStyle=orthogonalEdgeStyle;rounded=0;orthogonalLoop=1;jettySize=auto;html=1;" parent="1" source="AJm3aPvggbGKYEIz6-j--1" target="AJm3aPvggbGKYEIz6-j--6" edge="1">
          <mxGeometry relative="1" as="geometry" />
        </mxCell>
        <mxCell id="AJm3aPvggbGKYEIz6-j--14" value="배포" style="edgeLabel;html=1;align=center;verticalAlign=middle;resizable=0;points=[];strokeColor=default;fontFamily=Helvetica;fontSize=12;fontColor=default;labelBackgroundColor=default;fillColor=default;" parent="AJm3aPvggbGKYEIz6-j--7" vertex="1" connectable="0">
          <mxGeometry x="0.3556" y="-3" relative="1" as="geometry">
            <mxPoint as="offset" />
          </mxGeometry>
        </mxCell>
        <mxCell id="AJm3aPvggbGKYEIz6-j--1" value="개발자" style="shape=umlActor;verticalLabelPosition=bottom;verticalAlign=top;html=1;outlineConnect=0;" parent="1" vertex="1">
          <mxGeometry x="40" y="130" width="30" height="60" as="geometry" />
        </mxCell>
        <mxCell id="AJm3aPvggbGKYEIz6-j--3" value="" style="shape=image;verticalLabelPosition=bottom;labelBackgroundColor=default;verticalAlign=top;aspect=fixed;imageAspect=0;editableCssRules=.*;image=data:image/svg+xml,PHN2ZyB4bWxucz0iaHR0cDovL3d3dy53My5vcmcvMjAwMC9zdmciIGlkPSJzdmcxMzgyNiIgdmVyc2lvbj0iMS4xIiB2aWV3Qm94PSIxLjE5MjA5Mjg5NTUwNzgxMjVlLTcgLTMuNTc2Mjc4Njg2NTIzNDM3NWUtNyAxOC4wMzUzMzM2MzM0MjI4NSAxNy41MDAzNzU3NDc2ODA2NjQiIGhlaWdodD0iMTcuNTAwMzc1NzQ3NjgwNjY0IiB3aWR0aD0iMTguMDM1MzMzNjMzNDIyODUiPiYjeGE7ICA8ZGVmcyBpZD0iZGVmczEzODIwIi8+JiN4YTsgICYjeGE7ICA8bWV0YWRhdGEgaWQ9Im1ldGFkYXRhMTM4MjMiPiYjeGE7ICAgICYjeGE7ICAgICAgJiN4YTsgICAgICAgIGltYWdlL3N2Zyt4bWwmI3hhOyAgICAgICAgJiN4YTsgICAgICAgICYjeGE7ICAgICAgJiN4YTsgICAgJiN4YTsgIDwvbWV0YWRhdGE+JiN4YTsgIDxnIHRyYW5zZm9ybT0idHJhbnNsYXRlKC0wLjk5MjYyNjM4LC0xLjE3NDE4MSkiIGlkPSJsYXllcjEiPiYjeGE7ICAgIDxnIHRyYW5zZm9ybT0ibWF0cml4KDEuMDE0ODg4NywwLDAsMS4wMTQ4ODg3LDE2LjkwMjE0NiwtMi42OTg3MjYpIiBpZD0iZzcwIj4mI3hhOyAgICAgIDxwYXRoIHN0eWxlPSJmaWxsOiMzMjZjZTU7ZmlsbC1vcGFjaXR5OjE7c3Ryb2tlOm5vbmU7c3Ryb2tlLXdpZHRoOjA7c3Ryb2tlLW1pdGVybGltaXQ6NDtzdHJva2UtZGFzaGFycmF5Om5vbmU7c3Ryb2tlLW9wYWNpdHk6MSIgZD0ibSAtNi44NDkyMDE1LDQuMjcyNDY2OCBhIDEuMTE5MTI1NSwxLjEwOTk2NzEgMCAwIDAgLTAuNDI4ODgxOCwwLjEwODUzMDMgbCAtNS44NTI0MDM3LDIuNzk2MzM5NCBhIDEuMTE5MTI1NSwxLjEwOTk2NzEgMCAwIDAgLTAuNjA1NTI0LDAuNzUyOTc1OSBsIC0xLjQ0MzgyOCw2LjI4MTI4NDYgYSAxLjExOTEyNTUsMS4xMDk5NjcxIDAgMCAwIDAuMTUxOTQzLDAuODUxMDI4IDEuMTE5MTI1NSwxLjEwOTk2NzEgMCAwIDAgMC4wNjM2MiwwLjA4ODMyIGwgNC4wNTA4LDUuMDM2NTU1IGEgMS4xMTkxMjU1LDEuMTA5OTY3MSAwIDAgMCAwLjg3NDk3OSwwLjQxNzY1NCBsIDYuNDk2MTAxMSwtMC4wMDE1IGEgMS4xMTkxMjU1LDEuMTA5OTY3MSAwIDAgMCAwLjg3NDk3ODgsLTAuNDE2OTA2IEwgMS4zODE4ODcyLDE1LjE0OTQ1MyBBIDEuMTE5MTI1NSwxLjEwOTk2NzEgMCAwIDAgMS41OTgxOTg2LDE0LjIxMDEwNCBMIDAuMTUyMTI2NTcsNy45Mjg4MTU0IEEgMS4xMTkxMjU1LDEuMTA5OTY3MSAwIDAgMCAtMC40NTMzOTc5NCw3LjE3NTgzOTYgTCAtNi4zMDY1NDk2LDQuMzgwOTk3MSBBIDEuMTE5MTI1NSwxLjEwOTk2NzEgMCAwIDAgLTYuODQ5MjAxNSw0LjI3MjQ2NjggWiIgaWQ9InBhdGgzMDU1Ii8+JiN4YTsgICAgICA8cGF0aCB0ZXh0LWFuY2hvcj0ic3RhcnQiIHN0eWxlPSJjb2xvcjojMDAwMDAwO2ZvbnQtc3R5bGU6bm9ybWFsO2ZvbnQtdmFyaWFudDpub3JtYWw7Zm9udC13ZWlnaHQ6bm9ybWFsO2ZvbnQtc3RyZXRjaDpub3JtYWw7Zm9udC1zaXplOm1lZGl1bTtsaW5lLWhlaWdodDpub3JtYWw7Zm9udC1mYW1pbHk6U2FuczstaW5rc2NhcGUtZm9udC1zcGVjaWZpY2F0aW9uOlNhbnM7dGV4dC1pbmRlbnQ6MDt0ZXh0LWFsaWduOnN0YXJ0O3RleHQtZGVjb3JhdGlvbjpub25lO3RleHQtZGVjb3JhdGlvbi1saW5lOm5vbmU7bGV0dGVyLXNwYWNpbmc6bm9ybWFsO3dvcmQtc3BhY2luZzpub3JtYWw7dGV4dC10cmFuc2Zvcm06bm9uZTt3cml0aW5nLW1vZGU6bHItdGI7ZGlyZWN0aW9uOmx0cjtiYXNlbGluZS1zaGlmdDpiYXNlbGluZTtkaXNwbGF5OmlubGluZTtvdmVyZmxvdzp2aXNpYmxlO3Zpc2liaWxpdHk6dmlzaWJsZTtmaWxsOiNmZmZmZmY7ZmlsbC1vcGFjaXR5OjE7ZmlsbC1ydWxlOm5vbnplcm87c3Ryb2tlOm5vbmU7c3Ryb2tlLXdpZHRoOjA7c3Ryb2tlLW1pdGVybGltaXQ6NDtzdHJva2UtZGFzaGFycmF5Om5vbmU7bWFya2VyOm5vbmU7ZW5hYmxlLWJhY2tncm91bmQ6YWNjdW11bGF0ZSIgZD0iTSAtNi44NTIzNDM1LDMuODE3NjM3MiBBIDEuMTgxNDMwNCwxLjE3MTc2MiAwIDAgMCAtNy4zMDQ0Mjg0LDMuOTMyOTA0IGwgLTYuMTc4NzQyNiwyLjk1MTI3NTggYSAxLjE4MTQzMDQsMS4xNzE3NjIgMCAwIDAgLTAuNjM5MjA2LDAuNzk0ODkxIGwgLTEuNTIzOTE1LDYuNjMwODI4MiBhIDEuMTgxNDMwNCwxLjE3MTc2MiAwIDAgMCAwLjE2MDE3NSwwLjg5ODkzIDEuMTgxNDMwNCwxLjE3MTc2MiAwIDAgMCAwLjA2NzM2LDAuMDkyODEgbCA0LjI3NjA5NCw1LjMxNzIzNiBhIDEuMTgxNDMwNCwxLjE3MTc2MiAwIDAgMCAwLjkyMzYzLDAuNDQwODU4IGwgNi44NTc2MTg4LC0wLjAwMTUgYSAxLjE4MTQzMDQsMS4xNzE3NjIgMCAwIDAgMC45MjM2MzA4LC0wLjQ0MDExIGwgNC4yNzQ1OTY2LC01LjMxNzk4NSBhIDEuMTgxNDMwNCwxLjE3MTc2MiAwIDAgMCAwLjIyODI4OCwtMC45OTA5OTMgTCAwLjUzODk0NDM5LDcuNjc3NTczOCBBIDEuMTgxNDMwNCwxLjE3MTc2MiAwIDAgMCAtMC4xMDAyNjEwMSw2Ljg4MzQzMTMgTCAtNi4yNzkwMDM3LDMuOTMyMTU1NSBBIDEuMTgxNDMwNCwxLjE3MTc2MiAwIDAgMCAtNi44NTIzNDM1LDMuODE3NjM3MiBaIG0gMC4wMDI5OSwwLjQ1NTA3ODkgYSAxLjExOTEyNTUsMS4xMDk5NjcxIDAgMCAxIDAuNTQyNjUxNywwLjEwODUzMDMgbCA1Ljg1MzE1MTY5LDIuNzk0ODQyNSBBIDEuMTE5MTI1NSwxLjEwOTk2NzEgMCAwIDEgMC4xNTE5NzgxMSw3LjkyOTA2NDggTCAxLjU5ODA1MSwxNC4yMTAzNSBhIDEuMTE5MTI1NSwxLjEwOTk2NzEgMCAwIDEgLTAuMjE2MzEyMywwLjkzOTM0OCBsIC00LjA0OTMwMzIsNS4wMzczMDQgYSAxLjExOTEyNTUsMS4xMDk5NjcxIDAgMCAxIC0wLjg3NDk3ODksMC40MTY5MDYgbCAtNi40OTYxMDA2LDAuMDAxNSBhIDEuMTE5MTI1NSwxLjEwOTk2NzEgMCAwIDEgLTAuODc0OTc5LC0wLjQxNzY1MiBsIC00LjA1MDgsLTUuMDM2NTU0IGEgMS4xMTkxMjU1LDEuMTA5OTY3MSAwIDAgMSAtMC4wNjM2MiwtMC4wODgzMiAxLjExOTEyNTUsMS4xMDk5NjcxIDAgMCAxIC0wLjE1MTk0MiwtMC44NTEwMjggbCAxLjQ0MzgyNywtNi4yODEyODUzIGEgMS4xMTkxMjU1LDEuMTA5OTY3MSAwIDAgMSAwLjYwNTUyNCwtMC43NTI5NzU4IGwgNS44NTI0MDM2LC0yLjc5NjMzOTUgYSAxLjExOTEyNTUsMS4xMDk5NjcxIDAgMCAxIDAuNDI4ODgxOSwtMC4xMDg1MzAzIHoiIGlkPSJwYXRoMzA1NC0yLTkiLz4mI3hhOyAgICA8L2c+JiN4YTsgICAgPHRleHQgeG1sOnNwYWNlPSJwcmVzZXJ2ZSIgc3R5bGU9ImZvbnQtc3R5bGU6bm9ybWFsO2ZvbnQtd2VpZ2h0Om5vcm1hbDtmb250LXNpemU6MTAuNTgzMzMzMDJweDtsaW5lLWhlaWdodDo2LjYxNDU4MzQ5cHg7Zm9udC1mYW1pbHk6U2FucztsZXR0ZXItc3BhY2luZzowcHg7d29yZC1zcGFjaW5nOjBweDtmaWxsOiNmZmZmZmY7ZmlsbC1vcGFjaXR5OjE7c3Ryb2tlOm5vbmU7c3Ryb2tlLXdpZHRoOjAuMjY0NTgzMzJweDtzdHJva2UtbGluZWNhcDpidXR0O3N0cm9rZS1saW5lam9pbjptaXRlcjtzdHJva2Utb3BhY2l0eToxIiB4PSI5LjkzMDM2NzUiIHk9IjE2LjgxMTc3NSIgaWQ9InRleHQyMDY2Ij48dHNwYW4gaWQ9InRzcGFuMjA2NCIgeD0iOS45MzAzNjc1IiB5PSIxNi44MTE3NzUiIHRleHQtYW5jaG9yPSJtaWRkbGUiIHN0eWxlPSJmb250LXN0eWxlOm5vcm1hbDtmb250LXZhcmlhbnQ6bm9ybWFsO2ZvbnQtd2VpZ2h0Om5vcm1hbDtmb250LXN0cmV0Y2g6bm9ybWFsO2ZvbnQtc2l6ZToyLjgyMjIyMjIzcHg7Zm9udC1mYW1pbHk6QXJpYWw7LWlua3NjYXBlLWZvbnQtc3BlY2lmaWNhdGlvbjonQXJpYWwsIE5vcm1hbCc7dGV4dC1hbGlnbjpjZW50ZXI7d3JpdGluZy1tb2RlOmxyLXRiO2ZpbGw6I2ZmZmZmZjtmaWxsLW9wYWNpdHk6MTtzdHJva2Utd2lkdGg6MC4yNjQ1ODMzMnB4Ij5wdmM8L3RzcGFuPjwvdGV4dD4mI3hhOyAgICA8cGF0aCBzdHlsZT0iZmlsbDpub25lO2ZpbGwtcnVsZTpldmVub2RkO3N0cm9rZTojZmZmZmZmO3N0cm9rZS13aWR0aDowLjUyOTE2NjY0O3N0cm9rZS1saW5lY2FwOmJ1dHQ7c3Ryb2tlLWxpbmVqb2luOnJvdW5kO3N0cm9rZS1taXRlcmxpbWl0OjEwO3N0cm9rZS1kYXNoYXJyYXk6Mi4xMTY2NjY2OSwgMC41MjkxNjY2ODtzdHJva2UtZGFzaG9mZnNldDowO3N0cm9rZS1vcGFjaXR5OjEiIGQ9Im0gMTQuNjM5NDYsOC4wNzY2NDEzIDAsMCBjIDAsMC42MjExMjA3IC0yLjA3MjU1LDEuMTI0NjM5MSAtNC42MjkxNiwxLjEyNDYzOTEgLTIuNTU2NjIyNCwwIC00LjYyOTE3MywtMC41MDM1MTg0IC00LjYyOTE3MywtMS4xMjQ2MzkxIGwgMCwwIGMgMCwtMC42MjExMTkgMi4wNzI1NTA2LC0xLjEyNDYzNyA0LjYyOTE3MywtMS4xMjQ2MzcgMi41NTY2MSwwIDQuNjI5MTYsMC41MDM1MTggNC42MjkxNiwxLjEyNDYzNyBsIDAsMy4wNDIzOTE3IGMgMCwwLjYyMTEyIC0yLjA3MjU1LDEuMTI0NjM4IC00LjYyOTE2LDEuMTI0NjM4IC0yLjU1NjYyMjQsMCAtNC42MjkxNzMsLTAuNTAzNTE4IC00LjYyOTE3MywtMS4xMjQ2MzggbCAwLC0zLjA0MjM5MTciIGlkPSJwYXRoMTEzNCIvPiYjeGE7ICA8L2c+JiN4YTs8L3N2Zz4=;" parent="1" vertex="1">
          <mxGeometry x="320" y="120" width="80" height="80" as="geometry" />
        </mxCell>
        <mxCell id="AJm3aPvggbGKYEIz6-j--4" value="" style="shape=image;verticalLabelPosition=bottom;labelBackgroundColor=default;verticalAlign=top;aspect=fixed;imageAspect=0;editableCssRules=.*;image=data:image/svg+xml,PHN2ZyB4bWxucz0iaHR0cDovL3d3dy53My5vcmcvMjAwMC9zdmciIGlkPSJzdmcxMzgyNiIgdmVyc2lvbj0iMS4xIiB2aWV3Qm94PSIxLjE5MjA5Mjg5NTUwNzgxMjVlLTcgLTMuNTc2Mjc4Njg2NTIzNDM3NWUtNyAxOC4wMzUzMzM2MzM0MjI4NSAxNy41MDAzNzU3NDc2ODA2NjQiIGhlaWdodD0iMTcuNTAwMzc1NzQ3NjgwNjY0IiB3aWR0aD0iMTguMDM1MzMzNjMzNDIyODUiPiYjeGE7ICA8ZGVmcyBpZD0iZGVmczEzODIwIi8+JiN4YTsgICYjeGE7ICA8bWV0YWRhdGEgaWQ9Im1ldGFkYXRhMTM4MjMiPiYjeGE7ICAgICYjeGE7ICAgICAgJiN4YTsgICAgICAgIGltYWdlL3N2Zyt4bWwmI3hhOyAgICAgICAgJiN4YTsgICAgICAgICYjeGE7ICAgICAgJiN4YTsgICAgJiN4YTsgIDwvbWV0YWRhdGE+JiN4YTsgIDxnIHRyYW5zZm9ybT0idHJhbnNsYXRlKC0wLjk5MjYyNjM4LC0xLjE3NDE4MSkiIGlkPSJsYXllcjEiPiYjeGE7ICAgIDxnIHRyYW5zZm9ybT0ibWF0cml4KDEuMDE0ODg4NywwLDAsMS4wMTQ4ODg3LDE2LjkwMjE0NiwtMi42OTg3MjYpIiBpZD0iZzcwIj4mI3hhOyAgICAgIDxwYXRoIHN0eWxlPSJmaWxsOiMzMjZjZTU7ZmlsbC1vcGFjaXR5OjE7c3Ryb2tlOm5vbmU7c3Ryb2tlLXdpZHRoOjA7c3Ryb2tlLW1pdGVybGltaXQ6NDtzdHJva2UtZGFzaGFycmF5Om5vbmU7c3Ryb2tlLW9wYWNpdHk6MSIgZD0ibSAtNi44NDkyMDE1LDQuMjcyNDY2OCBhIDEuMTE5MTI1NSwxLjEwOTk2NzEgMCAwIDAgLTAuNDI4ODgxOCwwLjEwODUzMDMgbCAtNS44NTI0MDM3LDIuNzk2MzM5NCBhIDEuMTE5MTI1NSwxLjEwOTk2NzEgMCAwIDAgLTAuNjA1NTI0LDAuNzUyOTc1OSBsIC0xLjQ0MzgyOCw2LjI4MTI4NDYgYSAxLjExOTEyNTUsMS4xMDk5NjcxIDAgMCAwIDAuMTUxOTQzLDAuODUxMDI4IDEuMTE5MTI1NSwxLjEwOTk2NzEgMCAwIDAgMC4wNjM2MiwwLjA4ODMyIGwgNC4wNTA4LDUuMDM2NTU1IGEgMS4xMTkxMjU1LDEuMTA5OTY3MSAwIDAgMCAwLjg3NDk3OSwwLjQxNzY1NCBsIDYuNDk2MTAxMSwtMC4wMDE1IGEgMS4xMTkxMjU1LDEuMTA5OTY3MSAwIDAgMCAwLjg3NDk3ODgsLTAuNDE2OTA2IEwgMS4zODE4ODcyLDE1LjE0OTQ1MyBBIDEuMTE5MTI1NSwxLjEwOTk2NzEgMCAwIDAgMS41OTgxOTg2LDE0LjIxMDEwNCBMIDAuMTUyMTI2NTcsNy45Mjg4MTU0IEEgMS4xMTkxMjU1LDEuMTA5OTY3MSAwIDAgMCAtMC40NTMzOTc5NCw3LjE3NTgzOTYgTCAtNi4zMDY1NDk2LDQuMzgwOTk3MSBBIDEuMTE5MTI1NSwxLjEwOTk2NzEgMCAwIDAgLTYuODQ5MjAxNSw0LjI3MjQ2NjggWiIgaWQ9InBhdGgzMDU1Ii8+JiN4YTsgICAgICA8cGF0aCB0ZXh0LWFuY2hvcj0ic3RhcnQiIHN0eWxlPSJjb2xvcjojMDAwMDAwO2ZvbnQtc3R5bGU6bm9ybWFsO2ZvbnQtdmFyaWFudDpub3JtYWw7Zm9udC13ZWlnaHQ6bm9ybWFsO2ZvbnQtc3RyZXRjaDpub3JtYWw7Zm9udC1zaXplOm1lZGl1bTtsaW5lLWhlaWdodDpub3JtYWw7Zm9udC1mYW1pbHk6U2FuczstaW5rc2NhcGUtZm9udC1zcGVjaWZpY2F0aW9uOlNhbnM7dGV4dC1pbmRlbnQ6MDt0ZXh0LWFsaWduOnN0YXJ0O3RleHQtZGVjb3JhdGlvbjpub25lO3RleHQtZGVjb3JhdGlvbi1saW5lOm5vbmU7bGV0dGVyLXNwYWNpbmc6bm9ybWFsO3dvcmQtc3BhY2luZzpub3JtYWw7dGV4dC10cmFuc2Zvcm06bm9uZTt3cml0aW5nLW1vZGU6bHItdGI7ZGlyZWN0aW9uOmx0cjtiYXNlbGluZS1zaGlmdDpiYXNlbGluZTtkaXNwbGF5OmlubGluZTtvdmVyZmxvdzp2aXNpYmxlO3Zpc2liaWxpdHk6dmlzaWJsZTtmaWxsOiNmZmZmZmY7ZmlsbC1vcGFjaXR5OjE7ZmlsbC1ydWxlOm5vbnplcm87c3Ryb2tlOm5vbmU7c3Ryb2tlLXdpZHRoOjA7c3Ryb2tlLW1pdGVybGltaXQ6NDtzdHJva2UtZGFzaGFycmF5Om5vbmU7bWFya2VyOm5vbmU7ZW5hYmxlLWJhY2tncm91bmQ6YWNjdW11bGF0ZSIgZD0iTSAtNi44NTIzNDM1LDMuODE3NjM3MiBBIDEuMTgxNDMwNCwxLjE3MTc2MiAwIDAgMCAtNy4zMDQ0Mjg0LDMuOTMyOTA0IGwgLTYuMTc4NzQyNiwyLjk1MTI3NTggYSAxLjE4MTQzMDQsMS4xNzE3NjIgMCAwIDAgLTAuNjM5MjA2LDAuNzk0ODkxIGwgLTEuNTIzOTE1LDYuNjMwODI4MiBhIDEuMTgxNDMwNCwxLjE3MTc2MiAwIDAgMCAwLjE2MDE3NSwwLjg5ODkzIDEuMTgxNDMwNCwxLjE3MTc2MiAwIDAgMCAwLjA2NzM2LDAuMDkyODEgbCA0LjI3NjA5NCw1LjMxNzIzNiBhIDEuMTgxNDMwNCwxLjE3MTc2MiAwIDAgMCAwLjkyMzYzLDAuNDQwODU4IGwgNi44NTc2MTg4LC0wLjAwMTUgYSAxLjE4MTQzMDQsMS4xNzE3NjIgMCAwIDAgMC45MjM2MzA4LC0wLjQ0MDExIGwgNC4yNzQ1OTY2LC01LjMxNzk4NSBhIDEuMTgxNDMwNCwxLjE3MTc2MiAwIDAgMCAwLjIyODI4OCwtMC45OTA5OTMgTCAwLjUzODk0NDM5LDcuNjc3NTczOCBBIDEuMTgxNDMwNCwxLjE3MTc2MiAwIDAgMCAtMC4xMDAyNjEwMSw2Ljg4MzQzMTMgTCAtNi4yNzkwMDM3LDMuOTMyMTU1NSBBIDEuMTgxNDMwNCwxLjE3MTc2MiAwIDAgMCAtNi44NTIzNDM1LDMuODE3NjM3MiBaIG0gMC4wMDI5OSwwLjQ1NTA3ODkgYSAxLjExOTEyNTUsMS4xMDk5NjcxIDAgMCAxIDAuNTQyNjUxNywwLjEwODUzMDMgbCA1Ljg1MzE1MTY5LDIuNzk0ODQyNSBBIDEuMTE5MTI1NSwxLjEwOTk2NzEgMCAwIDEgMC4xNTE5NzgxMSw3LjkyOTA2NDggTCAxLjU5ODA1MSwxNC4yMTAzNSBhIDEuMTE5MTI1NSwxLjEwOTk2NzEgMCAwIDEgLTAuMjE2MzEyMywwLjkzOTM0OCBsIC00LjA0OTMwMzIsNS4wMzczMDQgYSAxLjExOTEyNTUsMS4xMDk5NjcxIDAgMCAxIC0wLjg3NDk3ODksMC40MTY5MDYgbCAtNi40OTYxMDA2LDAuMDAxNSBhIDEuMTE5MTI1NSwxLjEwOTk2NzEgMCAwIDEgLTAuODc0OTc5LC0wLjQxNzY1MiBsIC00LjA1MDgsLTUuMDM2NTU0IGEgMS4xMTkxMjU1LDEuMTA5OTY3MSAwIDAgMSAtMC4wNjM2MiwtMC4wODgzMiAxLjExOTEyNTUsMS4xMDk5NjcxIDAgMCAxIC0wLjE1MTk0MiwtMC44NTEwMjggbCAxLjQ0MzgyNywtNi4yODEyODUzIGEgMS4xMTkxMjU1LDEuMTA5OTY3MSAwIDAgMSAwLjYwNTUyNCwtMC43NTI5NzU4IGwgNS44NTI0MDM2LC0yLjc5NjMzOTUgYSAxLjExOTEyNTUsMS4xMDk5NjcxIDAgMCAxIDAuNDI4ODgxOSwtMC4xMDg1MzAzIHoiIGlkPSJwYXRoMzA1NC0yLTkiLz4mI3hhOyAgICA8L2c+JiN4YTsgICAgPHRleHQgeG1sOnNwYWNlPSJwcmVzZXJ2ZSIgc3R5bGU9ImZvbnQtc3R5bGU6bm9ybWFsO2ZvbnQtd2VpZ2h0Om5vcm1hbDtmb250LXNpemU6MTAuNTgzMzMzMDJweDtsaW5lLWhlaWdodDo2LjYxNDU4MzQ5cHg7Zm9udC1mYW1pbHk6U2FucztsZXR0ZXItc3BhY2luZzowcHg7d29yZC1zcGFjaW5nOjBweDtmaWxsOiNmZmZmZmY7ZmlsbC1vcGFjaXR5OjE7c3Ryb2tlOm5vbmU7c3Ryb2tlLXdpZHRoOjAuMjY0NTgzMzJweDtzdHJva2UtbGluZWNhcDpidXR0O3N0cm9rZS1saW5lam9pbjptaXRlcjtzdHJva2Utb3BhY2l0eToxIiB4PSI5LjkzMzgxMjEiIHk9IjE2LjgxMTc3NSIgaWQ9InRleHQyMDY2Ij48dHNwYW4gaWQ9InRzcGFuMjA2NCIgeD0iOS45MzM4MTIxIiB5PSIxNi44MTE3NzUiIHRleHQtYW5jaG9yPSJtaWRkbGUiIHN0eWxlPSJmb250LXN0eWxlOm5vcm1hbDtmb250LXZhcmlhbnQ6bm9ybWFsO2ZvbnQtd2VpZ2h0Om5vcm1hbDtmb250LXN0cmV0Y2g6bm9ybWFsO2ZvbnQtc2l6ZToyLjgyMjIyMjIzcHg7Zm9udC1mYW1pbHk6QXJpYWw7LWlua3NjYXBlLWZvbnQtc3BlY2lmaWNhdGlvbjonQXJpYWwsIE5vcm1hbCc7dGV4dC1hbGlnbjpjZW50ZXI7d3JpdGluZy1tb2RlOmxyLXRiO2ZpbGw6I2ZmZmZmZjtmaWxsLW9wYWNpdHk6MTtzdHJva2Utd2lkdGg6MC4yNjQ1ODMzMnB4Ij5wdjwvdHNwYW4+PC90ZXh0PiYjeGE7ICAgIDxnIHRyYW5zZm9ybT0idHJhbnNsYXRlKC0wLjE4OTgzMjg5LDApIiBpZD0iZzMzNDEiPiYjeGE7ICAgICAgPHBhdGggaWQ9InBhdGgxMTE0IiBkPSJtIDUuNTcwOTYxNCw3LjkxMDU4NDkgMCwwIGMgMCwwLjYyMTEyMSAyLjA3MjU0MDEsMS4xMjQ2MzkgNC42MjkxNzA2LDEuMTI0NjM5IDIuNTU2NjA5LDAgNC42MjkxNTksLTAuNTAzNTE4IDQuNjI5MTU5LC0xLjEyNDYzOSBsIDAsMy4wNDIzOTExIGMgMCwwLjYyMTEyIC0yLjA3MjU1LDEuMTI0NjM4IC00LjYyOTE1OSwxLjEyNDYzOCAtMi41NTY2MzA1LDAgLTQuNjI5MTcwNiwtMC41MDM1MTggLTQuNjI5MTcwNiwtMS4xMjQ2MzggeiIgc3R5bGU9ImZpbGw6I2ZmZmZmZjtmaWxsLXJ1bGU6ZXZlbm9kZDtzdHJva2U6bm9uZTtzdHJva2Utd2lkdGg6MC4yNjQ1ODMzMjtzdHJva2UtbGluZWNhcDpzcXVhcmU7c3Ryb2tlLW1pdGVybGltaXQ6MTAiLz4mI3hhOyAgICAgIDxwYXRoIGlkPSJwYXRoMTExNiIgZD0ibSA1LjU3MDk2MTQsNy45MTA1ODQ5IDAsMCBjIDAsLTAuNjIxMTE5IDIuMDcyNTQwMSwtMS4xMjQ2MzcgNC42MjkxNzA2LC0xLjEyNDYzNyAyLjU1NjYwOSwwIDQuNjI5MTU5LDAuNTAzNTE4IDQuNjI5MTU5LDEuMTI0NjM3IGwgMCwwIGMgMCwwLjYyMTEyMSAtMi4wNzI1NSwxLjEyNDYzOSAtNC42MjkxNTksMS4xMjQ2MzkgLTIuNTU2NjMwNSwwIC00LjYyOTE3MDYsLTAuNTAzNTE4IC00LjYyOTE3MDYsLTEuMTI0NjM5IHoiIHN0eWxlPSJmaWxsOiNmZmZmZmY7ZmlsbC1vcGFjaXR5OjE7ZmlsbC1ydWxlOmV2ZW5vZGQ7c3Ryb2tlOm5vbmU7c3Ryb2tlLXdpZHRoOjAuMjY0NTgzMzI7c3Ryb2tlLWxpbmVjYXA6c3F1YXJlO3N0cm9rZS1taXRlcmxpbWl0OjEwIi8+JiN4YTsgICAgICA8cGF0aCBpZD0icGF0aDExMjAiIGQ9Im0gMTQuODI5MjkxLDcuOTEwNTg0OSAwLDAgYyAwLDAuNjIxMTIxIC0yLjA3MjU1LDEuMTI0NjM5IC00LjYyOTE1OSwxLjEyNDYzOSAtMi41NTY2MjA1LDAgLTQuNjI5MTcwNiwtMC41MDM1MTggLTQuNjI5MTcwNiwtMS4xMjQ2MzkgbCAwLDAgYyAwLC0wLjYyMTExOSAyLjA3MjU1MDEsLTEuMTI0NjM3IDQuNjI5MTcwNiwtMS4xMjQ2MzcgMi41NTY2MDksMCA0LjYyOTE1OSwwLjUwMzUxOCA0LjYyOTE1OSwxLjEyNDYzNyBsIDAsMy4wNDIzOTExIGMgMCwwLjYyMTEyIC0yLjA3MjU1LDEuMTI0NjM4IC00LjYyOTE1OSwxLjEyNDYzOCAtMi41NTY2MjA1LDAgLTQuNjI5MTcwNiwtMC41MDM1MTggLTQuNjI5MTcwNiwtMS4xMjQ2MzggbCAwLC0zLjA0MjM5MTEiIHN0eWxlPSJmaWxsOm5vbmU7ZmlsbC1ydWxlOmV2ZW5vZGQ7c3Ryb2tlOiMzMjZjZTU7c3Ryb2tlLXdpZHRoOjAuMjY0NTgzMzI7c3Ryb2tlLWxpbmVjYXA6YnV0dDtzdHJva2UtbGluZWpvaW46cm91bmQ7c3Ryb2tlLW1pdGVybGltaXQ6MTA7c3Ryb2tlLW9wYWNpdHk6MSIvPiYjeGE7ICAgIDwvZz4mI3hhOyAgPC9nPiYjeGE7PC9zdmc+;fillColor=#FF0000;" parent="1" vertex="1">
          <mxGeometry x="640" y="120" width="80" height="80" as="geometry" />
        </mxCell>
        <mxCell id="AJm3aPvggbGKYEIz6-j--5" value="" style="shape=image;verticalLabelPosition=bottom;labelBackgroundColor=default;verticalAlign=top;aspect=fixed;imageAspect=0;editableCssRules=.*;image=data:image/svg+xml,PHN2ZyB4bWxucz0iaHR0cDovL3d3dy53My5vcmcvMjAwMC9zdmciIGlkPSJzdmcxMzgyNiIgdmVyc2lvbj0iMS4xIiB2aWV3Qm94PSIxLjE5MjA5Mjg5NTUwNzgxMjVlLTcgLTMuNTc2Mjc4Njg2NTIzNDM3NWUtNyAxOC4wMzUzMzM2MzM0MjI4NSAxNy41MDAzNzU3NDc2ODA2NjQiIGhlaWdodD0iMTcuNTAwMzc1NzQ3NjgwNjY0IiB3aWR0aD0iMTguMDM1MzMzNjMzNDIyODUiPiYjeGE7ICA8ZGVmcyBpZD0iZGVmczEzODIwIi8+JiN4YTsgICYjeGE7ICA8bWV0YWRhdGEgaWQ9Im1ldGFkYXRhMTM4MjMiPiYjeGE7ICAgICYjeGE7ICAgICAgJiN4YTsgICAgICAgIGltYWdlL3N2Zyt4bWwmI3hhOyAgICAgICAgJiN4YTsgICAgICAgICYjeGE7ICAgICAgJiN4YTsgICAgJiN4YTsgIDwvbWV0YWRhdGE+JiN4YTsgIDxnIHRyYW5zZm9ybT0idHJhbnNsYXRlKC0wLjk5MjYyNjM4LC0xLjE3NDE4MSkiIGlkPSJsYXllcjEiPiYjeGE7ICAgIDxnIHRyYW5zZm9ybT0ibWF0cml4KDEuMDE0ODg4NywwLDAsMS4wMTQ4ODg3LDE2LjkwMjE0NiwtMi42OTg3MjYpIiBpZD0iZzcwIj4mI3hhOyAgICAgIDxwYXRoIHN0eWxlPSJmaWxsOiMzMjZjZTU7ZmlsbC1vcGFjaXR5OjE7c3Ryb2tlOm5vbmU7c3Ryb2tlLXdpZHRoOjA7c3Ryb2tlLW1pdGVybGltaXQ6NDtzdHJva2UtZGFzaGFycmF5Om5vbmU7c3Ryb2tlLW9wYWNpdHk6MSIgZD0ibSAtNi44NDkyMDE1LDQuMjcyNDY2OCBhIDEuMTE5MTI1NSwxLjEwOTk2NzEgMCAwIDAgLTAuNDI4ODgxOCwwLjEwODUzMDMgbCAtNS44NTI0MDM3LDIuNzk2MzM5NCBhIDEuMTE5MTI1NSwxLjEwOTk2NzEgMCAwIDAgLTAuNjA1NTI0LDAuNzUyOTc1OSBsIC0xLjQ0MzgyOCw2LjI4MTI4NDYgYSAxLjExOTEyNTUsMS4xMDk5NjcxIDAgMCAwIDAuMTUxOTQzLDAuODUxMDI4IDEuMTE5MTI1NSwxLjEwOTk2NzEgMCAwIDAgMC4wNjM2MiwwLjA4ODMyIGwgNC4wNTA4LDUuMDM2NTU1IGEgMS4xMTkxMjU1LDEuMTA5OTY3MSAwIDAgMCAwLjg3NDk3OSwwLjQxNzY1NCBsIDYuNDk2MTAxMSwtMC4wMDE1IGEgMS4xMTkxMjU1LDEuMTA5OTY3MSAwIDAgMCAwLjg3NDk3ODgsLTAuNDE2OTA2IEwgMS4zODE4ODcyLDE1LjE0OTQ1MyBBIDEuMTE5MTI1NSwxLjEwOTk2NzEgMCAwIDAgMS41OTgxOTg2LDE0LjIxMDEwNCBMIDAuMTUyMTI2NTcsNy45Mjg4MTU0IEEgMS4xMTkxMjU1LDEuMTA5OTY3MSAwIDAgMCAtMC40NTMzOTc5NCw3LjE3NTgzOTYgTCAtNi4zMDY1NDk2LDQuMzgwOTk3MSBBIDEuMTE5MTI1NSwxLjEwOTk2NzEgMCAwIDAgLTYuODQ5MjAxNSw0LjI3MjQ2NjggWiIgaWQ9InBhdGgzMDU1Ii8+JiN4YTsgICAgICA8cGF0aCB0ZXh0LWFuY2hvcj0ic3RhcnQiIHN0eWxlPSJjb2xvcjojMDAwMDAwO2ZvbnQtc3R5bGU6bm9ybWFsO2ZvbnQtdmFyaWFudDpub3JtYWw7Zm9udC13ZWlnaHQ6bm9ybWFsO2ZvbnQtc3RyZXRjaDpub3JtYWw7Zm9udC1zaXplOm1lZGl1bTtsaW5lLWhlaWdodDpub3JtYWw7Zm9udC1mYW1pbHk6U2FuczstaW5rc2NhcGUtZm9udC1zcGVjaWZpY2F0aW9uOlNhbnM7dGV4dC1pbmRlbnQ6MDt0ZXh0LWFsaWduOnN0YXJ0O3RleHQtZGVjb3JhdGlvbjpub25lO3RleHQtZGVjb3JhdGlvbi1saW5lOm5vbmU7bGV0dGVyLXNwYWNpbmc6bm9ybWFsO3dvcmQtc3BhY2luZzpub3JtYWw7dGV4dC10cmFuc2Zvcm06bm9uZTt3cml0aW5nLW1vZGU6bHItdGI7ZGlyZWN0aW9uOmx0cjtiYXNlbGluZS1zaGlmdDpiYXNlbGluZTtkaXNwbGF5OmlubGluZTtvdmVyZmxvdzp2aXNpYmxlO3Zpc2liaWxpdHk6dmlzaWJsZTtmaWxsOiNmZmZmZmY7ZmlsbC1vcGFjaXR5OjE7ZmlsbC1ydWxlOm5vbnplcm87c3Ryb2tlOm5vbmU7c3Ryb2tlLXdpZHRoOjA7c3Ryb2tlLW1pdGVybGltaXQ6NDtzdHJva2UtZGFzaGFycmF5Om5vbmU7bWFya2VyOm5vbmU7ZW5hYmxlLWJhY2tncm91bmQ6YWNjdW11bGF0ZSIgZD0iTSAtNi44NTIzNDM1LDMuODE3NjM3MiBBIDEuMTgxNDMwNCwxLjE3MTc2MiAwIDAgMCAtNy4zMDQ0Mjg0LDMuOTMyOTA0IGwgLTYuMTc4NzQyNiwyLjk1MTI3NTggYSAxLjE4MTQzMDQsMS4xNzE3NjIgMCAwIDAgLTAuNjM5MjA2LDAuNzk0ODkxIGwgLTEuNTIzOTE1LDYuNjMwODI4MiBhIDEuMTgxNDMwNCwxLjE3MTc2MiAwIDAgMCAwLjE2MDE3NSwwLjg5ODkzIDEuMTgxNDMwNCwxLjE3MTc2MiAwIDAgMCAwLjA2NzM2LDAuMDkyODEgbCA0LjI3NjA5NCw1LjMxNzIzNiBhIDEuMTgxNDMwNCwxLjE3MTc2MiAwIDAgMCAwLjkyMzYzLDAuNDQwODU4IGwgNi44NTc2MTg4LC0wLjAwMTUgYSAxLjE4MTQzMDQsMS4xNzE3NjIgMCAwIDAgMC45MjM2MzA4LC0wLjQ0MDExIGwgNC4yNzQ1OTY2LC01LjMxNzk4NSBhIDEuMTgxNDMwNCwxLjE3MTc2MiAwIDAgMCAwLjIyODI4OCwtMC45OTA5OTMgTCAwLjUzODk0NDM5LDcuNjc3NTczOCBBIDEuMTgxNDMwNCwxLjE3MTc2MiAwIDAgMCAtMC4xMDAyNjEwMSw2Ljg4MzQzMTMgTCAtNi4yNzkwMDM3LDMuOTMyMTU1NSBBIDEuMTgxNDMwNCwxLjE3MTc2MiAwIDAgMCAtNi44NTIzNDM1LDMuODE3NjM3MiBaIG0gMC4wMDI5OSwwLjQ1NTA3ODkgYSAxLjExOTEyNTUsMS4xMDk5NjcxIDAgMCAxIDAuNTQyNjUxNywwLjEwODUzMDMgbCA1Ljg1MzE1MTY5LDIuNzk0ODQyNSBBIDEuMTE5MTI1NSwxLjEwOTk2NzEgMCAwIDEgMC4xNTE5NzgxMSw3LjkyOTA2NDggTCAxLjU5ODA1MSwxNC4yMTAzNSBhIDEuMTE5MTI1NSwxLjEwOTk2NzEgMCAwIDEgLTAuMjE2MzEyMywwLjkzOTM0OCBsIC00LjA0OTMwMzIsNS4wMzczMDQgYSAxLjExOTEyNTUsMS4xMDk5NjcxIDAgMCAxIC0wLjg3NDk3ODksMC40MTY5MDYgbCAtNi40OTYxMDA2LDAuMDAxNSBhIDEuMTE5MTI1NSwxLjEwOTk2NzEgMCAwIDEgLTAuODc0OTc5LC0wLjQxNzY1MiBsIC00LjA1MDgsLTUuMDM2NTU0IGEgMS4xMTkxMjU1LDEuMTA5OTY3MSAwIDAgMSAtMC4wNjM2MiwtMC4wODgzMiAxLjExOTEyNTUsMS4xMDk5NjcxIDAgMCAxIC0wLjE1MTk0MiwtMC44NTEwMjggbCAxLjQ0MzgyNywtNi4yODEyODUzIGEgMS4xMTkxMjU1LDEuMTA5OTY3MSAwIDAgMSAwLjYwNTUyNCwtMC43NTI5NzU4IGwgNS44NTI0MDM2LC0yLjc5NjMzOTUgYSAxLjExOTEyNTUsMS4xMDk5NjcxIDAgMCAxIDAuNDI4ODgxOSwtMC4xMDg1MzAzIHoiIGlkPSJwYXRoMzA1NC0yLTkiLz4mI3hhOyAgICA8L2c+JiN4YTsgICAgPHRleHQgeG1sOnNwYWNlPSJwcmVzZXJ2ZSIgc3R5bGU9ImZvbnQtc3R5bGU6bm9ybWFsO2ZvbnQtd2VpZ2h0Om5vcm1hbDtmb250LXNpemU6MTAuNTgzMzMzMDJweDtsaW5lLWhlaWdodDo2LjYxNDU4MzQ5cHg7Zm9udC1mYW1pbHk6U2FucztsZXR0ZXItc3BhY2luZzowcHg7d29yZC1zcGFjaW5nOjBweDtmaWxsOiNmZmZmZmY7ZmlsbC1vcGFjaXR5OjE7c3Ryb2tlOm5vbmU7c3Ryb2tlLXdpZHRoOjAuMjY0NTgzMzJweDtzdHJva2UtbGluZWNhcDpidXR0O3N0cm9rZS1saW5lam9pbjptaXRlcjtzdHJva2Utb3BhY2l0eToxIiB4PSI5Ljk3OTk3NjciIHk9IjE2LjgxMTc3NSIgaWQ9InRleHQyMDY2Ij48dHNwYW4gaWQ9InRzcGFuMjA2NCIgeD0iOS45Nzk5NzY3IiB5PSIxNi44MTE3NzUiIHRleHQtYW5jaG9yPSJtaWRkbGUiIHN0eWxlPSJmb250LXN0eWxlOm5vcm1hbDtmb250LXZhcmlhbnQ6bm9ybWFsO2ZvbnQtd2VpZ2h0Om5vcm1hbDtmb250LXN0cmV0Y2g6bm9ybWFsO2ZvbnQtc2l6ZToyLjgyMjIyMjIzcHg7Zm9udC1mYW1pbHk6QXJpYWw7LWlua3NjYXBlLWZvbnQtc3BlY2lmaWNhdGlvbjonQXJpYWwsIE5vcm1hbCc7dGV4dC1hbGlnbjpjZW50ZXI7d3JpdGluZy1tb2RlOmxyLXRiO2ZpbGw6I2ZmZmZmZjtmaWxsLW9wYWNpdHk6MTtzdHJva2Utd2lkdGg6MC4yNjQ1ODMzMnB4Ij5zYzwvdHNwYW4+PC90ZXh0PiYjeGE7ICAgIDxwYXRoIGlkPSJwYXRoNjQ3MyIgZD0ibSA1LjQxOTg1OTUsMTAuNTI2NzUxIDAsMCBjIDAsMC4zNzY2NzYgMi4xMDM0NiwwLjY4MjAzMyA0LjY5ODIxOTUsMC42ODIwMzMgMi41OTQ3NTEsMCA0LjY5ODIxLC0wLjMwNTM1NyA0LjY5ODIxLC0wLjY4MjAzMyBsIDAsMS44NDUwNDUgYyAwLDAuMzc2Njc0IC0yLjEwMzQ1OSwwLjY4MjAzIC00LjY5ODIxLDAuNjgyMDMgLTIuNTk0NzU5NSwwIC00LjY5ODIxOTUsLTAuMzA1MzU2IC00LjY5ODIxOTUsLTAuNjgyMDMgeiIgc3R5bGU9ImZpbGw6IzMyNmNlNTtmaWxsLW9wYWNpdHk6MTtmaWxsLXJ1bGU6ZXZlbm9kZDtzdHJva2U6bm9uZTtzdHJva2Utd2lkdGg6MC4yMDc1NzQyODtzdHJva2UtbGluZWNhcDpzcXVhcmU7c3Ryb2tlLW1pdGVybGltaXQ6MTAiLz4mI3hhOyAgICA8cGF0aCBpZD0icGF0aDY0NzUiIGQ9Im0gNS40MTk4NTk1LDEwLjUyNjc1MSAwLDAgYyAwLC0wLjM3NjY3NCAyLjEwMzQ2LC0wLjY4MjAzMzQgNC42OTgyMTk1LC0wLjY4MjAzMzQgMi41OTQ3NTEsMCA0LjY5ODIxLDAuMzA1MzU5NCA0LjY5ODIxLDAuNjgyMDMzNCBsIDAsMCBjIDAsMC4zNzY2NzYgLTIuMTAzNDU5LDAuNjgyMDMzIC00LjY5ODIxLDAuNjgyMDMzIC0yLjU5NDc1OTUsMCAtNC42OTgyMTk1LC0wLjMwNTM1NyAtNC42OTgyMTk1LC0wLjY4MjAzMyB6IiBzdHlsZT0iZmlsbDojMzI2Y2U1O2ZpbGwtb3BhY2l0eToxO2ZpbGwtcnVsZTpldmVub2RkO3N0cm9rZTpub25lO3N0cm9rZS13aWR0aDowLjIwNzU3NDI4O3N0cm9rZS1saW5lY2FwOnNxdWFyZTtzdHJva2UtbWl0ZXJsaW1pdDoxMCIvPiYjeGE7ICAgIDxwYXRoIGlkPSJwYXRoNjQ3OSIgZD0ibSA1LjQxOTg1OTUsOC4yMTcwNDMzIDAsMCBjIDAsMC4zNzY2NzYgMi4xMDM0NiwwLjY4MjAzMTkgNC42OTgyMTk1LDAuNjgyMDMxOSAyLjU5NDc1MSwwIDQuNjk4MjEsLTAuMzA1MzU1OSA0LjY5ODIxLC0wLjY4MjAzMTkgbCAwLDEuODQ1MDQ1NyBjIDAsMC4zNzY2NzQgLTIuMTAzNDU5LDAuNjgyMDMgLTQuNjk4MjEsMC42ODIwMyAtMi41OTQ3NTk1LDAgLTQuNjk4MjE5NSwtMC4zMDUzNTYgLTQuNjk4MjE5NSwtMC42ODIwMyB6IiBzdHlsZT0iZmlsbDojZmZmZmZmO2ZpbGwtb3BhY2l0eToxO2ZpbGwtcnVsZTpldmVub2RkO3N0cm9rZTojZWVlZWVlO3N0cm9rZS13aWR0aDowLjIwNzU3NDI5O3N0cm9rZS1saW5lY2FwOnNxdWFyZTtzdHJva2UtbWl0ZXJsaW1pdDoxMDtzdHJva2Utb3BhY2l0eToxIi8+JiN4YTsgICAgPHBhdGggaWQ9InBhdGg2NDgxIiBkPSJtIDUuNDE5ODU5NSw4LjIxNzA0MzMgMCwwIGMgMCwtMC4zNzY2NzUgMi4xMDM0NiwtMC42ODIwMzI1IDQuNjk4MjE5NSwtMC42ODIwMzI1IDIuNTk0NzUxLDAgNC42OTgyMSwwLjMwNTM1NzUgNC42OTgyMSwwLjY4MjAzMjUgbCAwLDAgYyAwLDAuMzc2Njc2IC0yLjEwMzQ1OSwwLjY4MjAzMTkgLTQuNjk4MjEsMC42ODIwMzE5IC0yLjU5NDc1OTUsMCAtNC42OTgyMTk1LC0wLjMwNTM1NTkgLTQuNjk4MjE5NSwtMC42ODIwMzE5IHoiIHN0eWxlPSJmaWxsOiMzMjZjZTU7ZmlsbC1vcGFjaXR5OjE7ZmlsbC1ydWxlOmV2ZW5vZGQ7c3Ryb2tlOm5vbmU7c3Ryb2tlLXdpZHRoOjAuMjA3NTc0Mjg7c3Ryb2tlLWxpbmVjYXA6c3F1YXJlO3N0cm9rZS1taXRlcmxpbWl0OjEwIi8+JiN4YTsgICAgPHBhdGggc3R5bGU9ImZpbGw6IzMyNmNlNTtmaWxsLW9wYWNpdHk6MTtmaWxsLXJ1bGU6ZXZlbm9kZDtzdHJva2U6bm9uZTtzdHJva2Utd2lkdGg6MC4yMDc1NzQyODtzdHJva2UtbGluZWNhcDpzcXVhcmU7c3Ryb2tlLW1pdGVybGltaXQ6MTAiIGQ9Im0gNS40MTk5NTg1LDUuNjYxNjU5OCAwLDAgYyAwLC0wLjM3NjY3NCAyLjEwMzQ1NiwtMC42ODIwMzIgNC42OTgyMjM1LC0wLjY4MjAzMiAyLjU5NDc0NiwwIDQuNjk4MjEyLDAuMzA1MzU4IDQuNjk4MjEyLDAuNjgyMDMyIGwgMCwwIGMgMCwwLjM3NjY3NiAtMi4xMDM0NjYsMC42ODIwMzIgLTQuNjk4MjEyLDAuNjgyMDMyIC0yLjU5NDc2NzUsMCAtNC42OTgyMjM1LC0wLjMwNTM1NiAtNC42OTgyMjM1LC0wLjY4MjAzMiB6IiBpZD0icGF0aDY0ODciLz4mI3hhOyAgICA8ZyB0cmFuc2Zvcm09InRyYW5zbGF0ZSgtMC4xMDc4NzA1OSwwKSIgaWQ9ImczMzQ3Ij4mI3hhOyAgICAgIDxwYXRoIHN0eWxlPSJmaWxsOm5vbmU7ZmlsbC1ydWxlOmV2ZW5vZGQ7c3Ryb2tlOiNmZmZmZmY7c3Ryb2tlLXdpZHRoOjAuNDE0OTk5OTk7c3Ryb2tlLWxpbmVjYXA6YnV0dDtzdHJva2UtbGluZWpvaW46cm91bmQ7c3Ryb2tlLW1pdGVybGltaXQ6MTA7c3Ryb2tlLWRhc2hhcnJheToxLjY2MDAwMDAyLCAwLjQxNTtzdHJva2UtZGFzaG9mZnNldDowO3N0cm9rZS1vcGFjaXR5OjEiIGQ9Im0gMTQuODE2Mjg5LDEwLjg4MTEwMyAwLDAgYyAwLDAuMzc2Njc2IC0yLjEwMzQ1OSwwLjY4MjAzMyAtNC42OTgyMSwwLjY4MjAzMyAtMi41OTQ3NDk1LDAgLTQuNjk4MjE5NSwtMC4zMDUzNTcgLTQuNjk4MjE5NSwtMC42ODIwMzMgbCAwLDAgYyAwLC0wLjM3NjY3NSAyLjEwMzQ3LC0wLjY4MjAzMSA0LjY5ODIxOTUsLTAuNjgyMDMxIDIuNTk0NzUxLDAgNC42OTgyMSwwLjMwNTM1NiA0LjY5ODIxLDAuNjgyMDMxIGwgMCwxLjg0NTA0NiBjIDAsMC4zNzY2NzMgLTIuMTAzNDU5LDAuNjgyMDI5IC00LjY5ODIxLDAuNjgyMDI5IC0yLjU5NDc0OTUsMCAtNC42OTgyMTk1LC0wLjMwNTM1NiAtNC42OTgyMTk1LC0wLjY4MjAyOSBsIDAsLTEuODQ1MDQ2IiBpZD0icGF0aDY0NzciLz4mI3hhOyAgICAgIDxwYXRoIHN0eWxlPSJmaWxsOm5vbmU7ZmlsbC1ydWxlOmV2ZW5vZGQ7c3Ryb2tlOiNmZmZmZmY7c3Ryb2tlLXdpZHRoOjAuNDE0OTk5OTk7c3Ryb2tlLWxpbmVjYXA6YnV0dDtzdHJva2UtbGluZWpvaW46cm91bmQ7c3Ryb2tlLW1pdGVybGltaXQ6MTA7c3Ryb2tlLWRhc2hhcnJheTpub25lO3N0cm9rZS1vcGFjaXR5OjEiIGQ9Im0gMTQuODE2Mjg5LDguMjE3MDQzMyAwLDAgYyAwLDAuMzc2Njc2IC0yLjEwMzQ1OSwwLjY4MjAzMTkgLTQuNjk4MjEsMC42ODIwMzE5IC0yLjU5NDc0OTUsMCAtNC42OTgyMTk1LC0wLjMwNTM1NTkgLTQuNjk4MjE5NSwtMC42ODIwMzE5IGwgMCwwIGMgMCwtMC4zNzY2NzUgMi4xMDM0NywtMC42ODIwMzI1IDQuNjk4MjE5NSwtMC42ODIwMzI1IDIuNTk0NzUxLDAgNC42OTgyMSwwLjMwNTM1NzUgNC42OTgyMSwwLjY4MjAzMjUgbCAwLDEuODQ1MDQ1NyBjIDAsMC4zNzY2NzQgLTIuMTAzNDU5LDAuNjgyMDMgLTQuNjk4MjEsMC42ODIwMyAtMi41OTQ3NDk1LDAgLTQuNjk4MjE5NSwtMC4zMDUzNTYgLTQuNjk4MjE5NSwtMC42ODIwMyBsIDAsLTEuODQ1MDQ1NyIgaWQ9InBhdGg2NDgzIi8+JiN4YTsgICAgICA8cGF0aCBpZD0icGF0aDY0ODUiIGQ9Im0gNS40MTk5NTg1LDUuNjYxNjU5OCAwLDAgYyAwLDAuMzc2Njc2IDIuMTAzNDU2LDAuNjgyMDMyIDQuNjk4MjIzNSwwLjY4MjAzMiAyLjU5NDc0NiwwIDQuNjk4MjEyLC0wLjMwNTM1NiA0LjY5ODIxMiwtMC42ODIwMzIgbCAwLDEuODQ1MDQ1IGMgMCwwLjM3NjY3NDUgLTIuMTAzNDY2LDAuNjgyMDMwNSAtNC42OTgyMTIsMC42ODIwMzA1IC0yLjU5NDc2NzUsMCAtNC42OTgyMjM1LC0wLjMwNTM1NiAtNC42OTgyMjM1LC0wLjY4MjAzMDUgeiIgc3R5bGU9ImZpbGw6IzMyNmNlNTtmaWxsLW9wYWNpdHk6MTtmaWxsLXJ1bGU6ZXZlbm9kZDtzdHJva2U6bm9uZTtzdHJva2Utd2lkdGg6MC4yMDc1NzQyODtzdHJva2UtbGluZWNhcDpzcXVhcmU7c3Ryb2tlLW1pdGVybGltaXQ6MTAiLz4mI3hhOyAgICAgIDxwYXRoIGlkPSJwYXRoNjQ4OSIgZD0ibSAxNC44MTYzOTQsNS42NjE2NTk4IDAsMCBjIDAsMC4zNzY2NzYgLTIuMTAzNDY2LDAuNjgyMDMyIC00LjY5ODIxMiwwLjY4MjAzMiAtMi41OTQ3NTc1LDAgLTQuNjk4MjIzNSwtMC4zMDUzNTYgLTQuNjk4MjIzNSwtMC42ODIwMzIgbCAwLDAgYyAwLC0wLjM3NjY3NCAyLjEwMzQ2NiwtMC42ODIwMzIgNC42OTgyMjM1LC0wLjY4MjAzMiAyLjU5NDc0NiwwIDQuNjk4MjEyLDAuMzA1MzU4IDQuNjk4MjEyLDAuNjgyMDMyIGwgMCwxLjg0NTA0NSBjIDAsMC4zNzY2NzQ1IC0yLjEwMzQ2NiwwLjY4MjAzMDUgLTQuNjk4MjEyLDAuNjgyMDMwNSAtMi41OTQ3NTc1LDAgLTQuNjk4MjIzNSwtMC4zMDUzNTYgLTQuNjk4MjIzNSwtMC42ODIwMzA1IGwgMCwtMS44NDUwNDUiIHN0eWxlPSJmaWxsOm5vbmU7ZmlsbC1ydWxlOmV2ZW5vZGQ7c3Ryb2tlOiNmZmZmZmY7c3Ryb2tlLXdpZHRoOjAuNDE1MTQ4NTk7c3Ryb2tlLWxpbmVjYXA6YnV0dDtzdHJva2UtbGluZWpvaW46cm91bmQ7c3Ryb2tlLW1pdGVybGltaXQ6MTA7c3Ryb2tlLWRhc2hhcnJheToxLjY2MDU5NDMzLCAwLjQxNTE0ODU4O3N0cm9rZS1kYXNob2Zmc2V0OjA7c3Ryb2tlLW9wYWNpdHk6MSIvPiYjeGE7ICAgIDwvZz4mI3hhOyAgPC9nPiYjeGE7PC9zdmc+;" parent="1" vertex="1">
          <mxGeometry x="480" y="120" width="80" height="80" as="geometry" />
        </mxCell>
        <mxCell id="AJm3aPvggbGKYEIz6-j--6" value="" style="shape=image;verticalLabelPosition=bottom;labelBackgroundColor=default;verticalAlign=top;aspect=fixed;imageAspect=0;editableCssRules=.*;image=data:image/svg+xml,PHN2ZyB4bWxucz0iaHR0cDovL3d3dy53My5vcmcvMjAwMC9zdmciIGlkPSJzdmcxMzgyNiIgdmVyc2lvbj0iMS4xIiB2aWV3Qm94PSIxLjE5MjA5Mjg5NTUwNzgxMjVlLTcgLTMuNTc2Mjc4Njg2NTIzNDM3NWUtNyAxOC4wMzUzMzM2MzM0MjI4NSAxNy41MDAzNzU3NDc2ODA2NjQiIGhlaWdodD0iMTcuNTAwMzc1NzQ3NjgwNjY0IiB3aWR0aD0iMTguMDM1MzMzNjMzNDIyODUiPiYjeGE7ICA8ZGVmcyBpZD0iZGVmczEzODIwIi8+JiN4YTsgICYjeGE7ICA8bWV0YWRhdGEgaWQ9Im1ldGFkYXRhMTM4MjMiPiYjeGE7ICAgICYjeGE7ICAgICAgJiN4YTsgICAgICAgIGltYWdlL3N2Zyt4bWwmI3hhOyAgICAgICAgJiN4YTsgICAgICAgICYjeGE7ICAgICAgJiN4YTsgICAgJiN4YTsgIDwvbWV0YWRhdGE+JiN4YTsgIDxnIHRyYW5zZm9ybT0idHJhbnNsYXRlKC0wLjk5MjYyNjM4LC0xLjE3NDE4MSkiIGlkPSJsYXllcjEiPiYjeGE7ICAgIDxnIHRyYW5zZm9ybT0ibWF0cml4KDEuMDE0ODg4NywwLDAsMS4wMTQ4ODg3LDE2LjkwMjE0NiwtMi42OTg3MjYpIiBpZD0iZzcwIj4mI3hhOyAgICAgIDxwYXRoIHN0eWxlPSJmaWxsOiMzMjZjZTU7ZmlsbC1vcGFjaXR5OjE7c3Ryb2tlOm5vbmU7c3Ryb2tlLXdpZHRoOjA7c3Ryb2tlLW1pdGVybGltaXQ6NDtzdHJva2UtZGFzaGFycmF5Om5vbmU7c3Ryb2tlLW9wYWNpdHk6MSIgZD0ibSAtNi44NDkyMDE1LDQuMjcyNDY2OCBhIDEuMTE5MTI1NSwxLjEwOTk2NzEgMCAwIDAgLTAuNDI4ODgxOCwwLjEwODUzMDMgbCAtNS44NTI0MDM3LDIuNzk2MzM5NCBhIDEuMTE5MTI1NSwxLjEwOTk2NzEgMCAwIDAgLTAuNjA1NTI0LDAuNzUyOTc1OSBsIC0xLjQ0MzgyOCw2LjI4MTI4NDYgYSAxLjExOTEyNTUsMS4xMDk5NjcxIDAgMCAwIDAuMTUxOTQzLDAuODUxMDI4IDEuMTE5MTI1NSwxLjEwOTk2NzEgMCAwIDAgMC4wNjM2MiwwLjA4ODMyIGwgNC4wNTA4LDUuMDM2NTU1IGEgMS4xMTkxMjU1LDEuMTA5OTY3MSAwIDAgMCAwLjg3NDk3OSwwLjQxNzY1NCBsIDYuNDk2MTAxMSwtMC4wMDE1IGEgMS4xMTkxMjU1LDEuMTA5OTY3MSAwIDAgMCAwLjg3NDk3ODgsLTAuNDE2OTA2IEwgMS4zODE4ODcyLDE1LjE0OTQ1MyBBIDEuMTE5MTI1NSwxLjEwOTk2NzEgMCAwIDAgMS41OTgxOTg2LDE0LjIxMDEwNCBMIDAuMTUyMTI2NTcsNy45Mjg4MTU0IEEgMS4xMTkxMjU1LDEuMTA5OTY3MSAwIDAgMCAtMC40NTMzOTc5NCw3LjE3NTgzOTYgTCAtNi4zMDY1NDk2LDQuMzgwOTk3MSBBIDEuMTE5MTI1NSwxLjEwOTk2NzEgMCAwIDAgLTYuODQ5MjAxNSw0LjI3MjQ2NjggWiIgaWQ9InBhdGgzMDU1Ii8+JiN4YTsgICAgICA8cGF0aCB0ZXh0LWFuY2hvcj0ic3RhcnQiIHN0eWxlPSJjb2xvcjojMDAwMDAwO2ZvbnQtc3R5bGU6bm9ybWFsO2ZvbnQtdmFyaWFudDpub3JtYWw7Zm9udC13ZWlnaHQ6bm9ybWFsO2ZvbnQtc3RyZXRjaDpub3JtYWw7Zm9udC1zaXplOm1lZGl1bTtsaW5lLWhlaWdodDpub3JtYWw7Zm9udC1mYW1pbHk6U2FuczstaW5rc2NhcGUtZm9udC1zcGVjaWZpY2F0aW9uOlNhbnM7dGV4dC1pbmRlbnQ6MDt0ZXh0LWFsaWduOnN0YXJ0O3RleHQtZGVjb3JhdGlvbjpub25lO3RleHQtZGVjb3JhdGlvbi1saW5lOm5vbmU7bGV0dGVyLXNwYWNpbmc6bm9ybWFsO3dvcmQtc3BhY2luZzpub3JtYWw7dGV4dC10cmFuc2Zvcm06bm9uZTt3cml0aW5nLW1vZGU6bHItdGI7ZGlyZWN0aW9uOmx0cjtiYXNlbGluZS1zaGlmdDpiYXNlbGluZTtkaXNwbGF5OmlubGluZTtvdmVyZmxvdzp2aXNpYmxlO3Zpc2liaWxpdHk6dmlzaWJsZTtmaWxsOiNmZmZmZmY7ZmlsbC1vcGFjaXR5OjE7ZmlsbC1ydWxlOm5vbnplcm87c3Ryb2tlOm5vbmU7c3Ryb2tlLXdpZHRoOjA7c3Ryb2tlLW1pdGVybGltaXQ6NDtzdHJva2UtZGFzaGFycmF5Om5vbmU7bWFya2VyOm5vbmU7ZW5hYmxlLWJhY2tncm91bmQ6YWNjdW11bGF0ZSIgZD0iTSAtNi44NTIzNDM1LDMuODE3NjM3MiBBIDEuMTgxNDMwNCwxLjE3MTc2MiAwIDAgMCAtNy4zMDQ0Mjg0LDMuOTMyOTA0IGwgLTYuMTc4NzQyNiwyLjk1MTI3NTggYSAxLjE4MTQzMDQsMS4xNzE3NjIgMCAwIDAgLTAuNjM5MjA2LDAuNzk0ODkxIGwgLTEuNTIzOTE1LDYuNjMwODI4MiBhIDEuMTgxNDMwNCwxLjE3MTc2MiAwIDAgMCAwLjE2MDE3NSwwLjg5ODkzIDEuMTgxNDMwNCwxLjE3MTc2MiAwIDAgMCAwLjA2NzM2LDAuMDkyODEgbCA0LjI3NjA5NCw1LjMxNzIzNiBhIDEuMTgxNDMwNCwxLjE3MTc2MiAwIDAgMCAwLjkyMzYzLDAuNDQwODU4IGwgNi44NTc2MTg4LC0wLjAwMTUgYSAxLjE4MTQzMDQsMS4xNzE3NjIgMCAwIDAgMC45MjM2MzA4LC0wLjQ0MDExIGwgNC4yNzQ1OTY2LC01LjMxNzk4NSBhIDEuMTgxNDMwNCwxLjE3MTc2MiAwIDAgMCAwLjIyODI4OCwtMC45OTA5OTMgTCAwLjUzODk0NDM5LDcuNjc3NTczOCBBIDEuMTgxNDMwNCwxLjE3MTc2MiAwIDAgMCAtMC4xMDAyNjEwMSw2Ljg4MzQzMTMgTCAtNi4yNzkwMDM3LDMuOTMyMTU1NSBBIDEuMTgxNDMwNCwxLjE3MTc2MiAwIDAgMCAtNi44NTIzNDM1LDMuODE3NjM3MiBaIG0gMC4wMDI5OSwwLjQ1NTA3ODkgYSAxLjExOTEyNTUsMS4xMDk5NjcxIDAgMCAxIDAuNTQyNjUxNywwLjEwODUzMDMgbCA1Ljg1MzE1MTY5LDIuNzk0ODQyNSBBIDEuMTE5MTI1NSwxLjEwOTk2NzEgMCAwIDEgMC4xNTE5NzgxMSw3LjkyOTA2NDggTCAxLjU5ODA1MSwxNC4yMTAzNSBhIDEuMTE5MTI1NSwxLjEwOTk2NzEgMCAwIDEgLTAuMjE2MzEyMywwLjkzOTM0OCBsIC00LjA0OTMwMzIsNS4wMzczMDQgYSAxLjExOTEyNTUsMS4xMDk5NjcxIDAgMCAxIC0wLjg3NDk3ODksMC40MTY5MDYgbCAtNi40OTYxMDA2LDAuMDAxNSBhIDEuMTE5MTI1NSwxLjEwOTk2NzEgMCAwIDEgLTAuODc0OTc5LC0wLjQxNzY1MiBsIC00LjA1MDgsLTUuMDM2NTU0IGEgMS4xMTkxMjU1LDEuMTA5OTY3MSAwIDAgMSAtMC4wNjM2MiwtMC4wODgzMiAxLjExOTEyNTUsMS4xMDk5NjcxIDAgMCAxIC0wLjE1MTk0MiwtMC44NTEwMjggbCAxLjQ0MzgyNywtNi4yODEyODUzIGEgMS4xMTkxMjU1LDEuMTA5OTY3MSAwIDAgMSAwLjYwNTUyNCwtMC43NTI5NzU4IGwgNS44NTI0MDM2LC0yLjc5NjMzOTUgYSAxLjExOTEyNTUsMS4xMDk5NjcxIDAgMCAxIDAuNDI4ODgxOSwtMC4xMDg1MzAzIHoiIGlkPSJwYXRoMzA1NC0yLTkiLz4mI3hhOyAgICA8L2c+JiN4YTsgICAgPHRleHQgeG1sOnNwYWNlPSJwcmVzZXJ2ZSIgc3R5bGU9ImZvbnQtc3R5bGU6bm9ybWFsO2ZvbnQtd2VpZ2h0Om5vcm1hbDtmb250LXNpemU6MTAuNTgzMzMzMDJweDtsaW5lLWhlaWdodDo2LjYxNDU4MzQ5cHg7Zm9udC1mYW1pbHk6U2FucztsZXR0ZXItc3BhY2luZzowcHg7d29yZC1zcGFjaW5nOjBweDtmaWxsOiNmZmZmZmY7ZmlsbC1vcGFjaXR5OjE7c3Ryb2tlOm5vbmU7c3Ryb2tlLXdpZHRoOjAuMjY0NTgzMzJweDtzdHJva2UtbGluZWNhcDpidXR0O3N0cm9rZS1saW5lam9pbjptaXRlcjtzdHJva2Utb3BhY2l0eToxIiB4PSIxMC4wMTcxODMiIHk9IjE2LjgxMTc3NSIgaWQ9InRleHQyMDY2Ij48dHNwYW4gaWQ9InRzcGFuMjA2NCIgeD0iMTAuMDE3MTgzIiB5PSIxNi44MTE3NzUiIHRleHQtYW5jaG9yPSJtaWRkbGUiIHN0eWxlPSJmb250LXN0eWxlOm5vcm1hbDtmb250LXZhcmlhbnQ6bm9ybWFsO2ZvbnQtd2VpZ2h0Om5vcm1hbDtmb250LXN0cmV0Y2g6bm9ybWFsO2ZvbnQtc2l6ZToyLjgyMjIyMjIzcHg7Zm9udC1mYW1pbHk6QXJpYWw7LWlua3NjYXBlLWZvbnQtc3BlY2lmaWNhdGlvbjonQXJpYWwsIE5vcm1hbCc7dGV4dC1hbGlnbjpjZW50ZXI7d3JpdGluZy1tb2RlOmxyLXRiO2ZpbGw6I2ZmZmZmZjtmaWxsLW9wYWNpdHk6MTtzdHJva2Utd2lkdGg6MC4yNjQ1ODMzMnB4Ij5wb2Q8L3RzcGFuPjwvdGV4dD4mI3hhOyAgICA8ZyB0cmFuc2Zvcm09InRyYW5zbGF0ZSgwLjEyNzY2NjYxLDApIiBpZD0iZzMzNDEiPiYjeGE7ICAgICAgPHBhdGggaWQ9InBhdGg5MTAiIGQ9Ik0gNi4yNjE3OTE0LDcuMDM2MDg2IDkuODgyNjMxNyw1Ljk4NjA4NyAxMy41MDM0NjIsNy4wMzYwODYgOS44ODI2MzE3LDguMDg2MDg3IFoiIHN0eWxlPSJmaWxsOiNmZmZmZmY7ZmlsbC1ydWxlOmV2ZW5vZGQ7c3Ryb2tlOm5vbmU7c3Ryb2tlLXdpZHRoOjAuMjY0NTgzMzI7c3Ryb2tlLWxpbmVjYXA6c3F1YXJlO3N0cm9rZS1taXRlcmxpbWl0OjEwIi8+JiN4YTsgICAgICA8cGF0aCBpZD0icGF0aDkxMiIgZD0ibSA2LjI2MTc5MTQsNy40MzgxNyAwLDMuODUyNzc4IDMuMzczNjEwMywxLjg2ODc0OSAwLjAxNjcsLTQuNzEzMTkzIHoiIHN0eWxlPSJmaWxsOiNmZmZmZmY7ZmlsbC1ydWxlOmV2ZW5vZGQ7c3Ryb2tlOm5vbmU7c3Ryb2tlLXdpZHRoOjAuMjY0NTgzMzI7c3Ryb2tlLWxpbmVjYXA6c3F1YXJlO3N0cm9rZS1taXRlcmxpbWl0OjEwIi8+JiN4YTsgICAgICA8cGF0aCBpZD0icGF0aDkxNCIgZD0ibSAxMy41MDM0NjIsNy40MzgxNyAwLDMuODUyNzc4IC0zLjM3MzYxLDEuODY4NzQ5IC0wLjAxNjcsLTQuNzEzMTkzIHoiIHN0eWxlPSJmaWxsOiNmZmZmZmY7ZmlsbC1ydWxlOmV2ZW5vZGQ7c3Ryb2tlOm5vbmU7c3Ryb2tlLXdpZHRoOjAuMjY0NTgzMzI7c3Ryb2tlLWxpbmVjYXA6c3F1YXJlO3N0cm9rZS1taXRlcmxpbWl0OjEwIi8+JiN4YTsgICAgPC9nPiYjeGE7ICA8L2c+JiN4YTs8L3N2Zz4=;" parent="1" vertex="1">
          <mxGeometry x="160" y="120" width="80" height="80" as="geometry" />
        </mxCell>
        <mxCell id="AJm3aPvggbGKYEIz6-j--9" value="" style="endArrow=none;dashed=1;html=1;dashPattern=1 3;strokeWidth=2;rounded=0;entryX=0;entryY=0.5;entryDx=0;entryDy=0;" parent="1" source="AJm3aPvggbGKYEIz6-j--6" target="AJm3aPvggbGKYEIz6-j--3" edge="1">
          <mxGeometry width="50" height="50" relative="1" as="geometry">
            <mxPoint x="390" y="460" as="sourcePoint" />
            <mxPoint x="440" y="410" as="targetPoint" />
          </mxGeometry>
        </mxCell>
        <mxCell id="AJm3aPvggbGKYEIz6-j--10" value="" style="endArrow=classic;html=1;rounded=0;" parent="1" source="AJm3aPvggbGKYEIz6-j--3" target="AJm3aPvggbGKYEIz6-j--5" edge="1">
          <mxGeometry width="50" height="50" relative="1" as="geometry">
            <mxPoint x="390" y="460" as="sourcePoint" />
            <mxPoint x="440" y="410" as="targetPoint" />
          </mxGeometry>
        </mxCell>
        <mxCell id="AJm3aPvggbGKYEIz6-j--11" value="" style="endArrow=classic;html=1;rounded=0;exitX=1;exitY=0.5;exitDx=0;exitDy=0;" parent="1" source="AJm3aPvggbGKYEIz6-j--5" target="AJm3aPvggbGKYEIz6-j--4" edge="1">
          <mxGeometry width="50" height="50" relative="1" as="geometry">
            <mxPoint x="380" y="170" as="sourcePoint" />
            <mxPoint x="530" y="170" as="targetPoint" />
          </mxGeometry>
        </mxCell>
        <mxCell id="AJm3aPvggbGKYEIz6-j--12" value="자동 생성" style="edgeLabel;html=1;align=center;verticalAlign=middle;resizable=0;points=[];strokeColor=default;fontFamily=Helvetica;fontSize=12;fontColor=default;labelBackgroundColor=default;fillColor=default;" parent="AJm3aPvggbGKYEIz6-j--11" vertex="1" connectable="0">
          <mxGeometry x="-0.325" y="1" relative="1" as="geometry">
            <mxPoint as="offset" />
          </mxGeometry>
        </mxCell>
        <mxCell id="3XCIaTO3jlM5BmFAubP3-1" value="EBS Volume" style="shape=image;verticalLabelPosition=bottom;labelBackgroundColor=default;verticalAlign=top;aspect=fixed;imageAspect=0;image=data:image/png,iVBORw0KGgoAAAANSUhEUgAAACQAAAAkCAYAAADhAJiYAAAAAXNSR0IArs4c6QAAAIRlWElmTU0AKgAAAAgABQESAAMAAAABAAEAAAEaAAUAAAABAAAASgEbAAUAAAABAAAAUgEoAAMAAAABAAIAAIdpAAQAAAABAAAAWgAAAAAAAABIAAAAAQAAAEgAAAABAAOgAQADAAAAAQABAACgAgAEAAAAAQAAACSgAwAEAAAAAQAAACQAAAAA2TSO/wAAAAlwSFlzAAALEwAACxMBAJqcGAAAAftJREFUWAntWD1LA0EQnbmLGBENmg9QsLK1EAUbC3+CpInYaIKgIIhYRGIstDLiF2JhJSZBhMTKxt5GLPwDIraCJCoRkSQab5xCQXJ7tzFewGIDR273zRvevH0HlwD8sw/Womcp7ZtBQ+uqpVZUQ2gY8AaZxPTDjQj/uScVFE/75wFw9yepnnsCuv2o0MDG1MOLHd9lBy6mvUNEsMk1p4lwLmhXa4ctpQLDiHCu63jAdWN2tZoVGNv3dOikZ9mduyK9RazqatnnYS6IcBkRQ7FkYNaOYylIa21O8lTdRB+h3UihYNekFoxFbQLRGffciR76Bqw4QkHxlG+BCaNEFF2PPF5ZkX+5T8VKeQKBck0ansztdbaL+KZQx1K+QQS85Oud83MkIv1pD6mPj26Yh80kwvnx6l6mUCNRDyDm+anQAGG0muDEmsXcczb9TvRqeA/zkaW9QQT9GAiE+XJMEdJ1YjLfX91PcGR6Lz8JLQbANiK9VxOcWeMIZ3RQ1Msk6Luoks+tbEXh9Xvt5Hc85V/jnAoFNfZY6phCCZKZphxSDskckOEqQ8ohmQMyXGVIOSRzQIarDCmHZA7IcMt36nJzpw6rTw3JGPEbvunnzpdSsyDi/3JQgzaP6znuCcgGqh8nKInIJkEljbJuIDcZpIsIju0h3DrWq5GNPgEh1oaZ9+r7/AAAAABJRU5ErkJggg==;" vertex="1" parent="1">
          <mxGeometry x="800" y="40" width="80" height="80" as="geometry" />
        </mxCell>
        <mxCell id="3XCIaTO3jlM5BmFAubP3-3" value="EFS Filesystem" style="shape=image;verticalLabelPosition=bottom;labelBackgroundColor=default;verticalAlign=top;aspect=fixed;imageAspect=0;image=data:image/png,iVBORw0KGgoAAAANSUhEUgAAACQAAAAkCAYAAADhAJiYAAAAAXNSR0IArs4c6QAAAIRlWElmTU0AKgAAAAgABQESAAMAAAABAAEAAAEaAAUAAAABAAAASgEbAAUAAAABAAAAUgEoAAMAAAABAAIAAIdpAAQAAAABAAAAWgAAAAAAAABIAAAAAQAAAEgAAAABAAOgAQADAAAAAQABAACgAgAEAAAAAQAAACSgAwAEAAAAAQAAACQAAAAA2TSO/wAAAAlwSFlzAAALEwAACxMBAJqcGAAABklJREFUWAntWH1sVEUQn93Xu35qob07EBS0FjQaJQYj1QgIQWoRDQFag1FpY6ASPwIG5A4Sg4lWRAETYhWV9iofmpRIAAWFVFAUg9JEhUA0+JUgFHoFSlvau95742/vuo+765UEuP7HJtfZnf3N7O/Nzs7bV6Jr7dIREInTvpq8O8gwqpl5kxDiSS3NkDVvxZyWo7H4V9a5rjPSxHaNuShF1fLy07tisarv83u2EFvfwu9kJrEdqhlE/Omb5c3rNDZNd7QU0phAJMYLEunQFWlpOIyHMI4jJAWPESRtLAmRgSccA2K/ABtHyFebfzvmJrMUw+H/TmJ2YTyaBQVpGdXiZ8GGoIs2X02OWxhZP8PZEGixlujWc3gKJxOZeLITwa7Oe1dWtgV8dZ5DgqmABWcCG7SxgvGQQj3ov2Eyy1bMbvkJkdkKH+Nhn0tMXRrLxAZ0DpD7D7+FVRWBz5RhpFndjpAheQ+eslQw11eVn67Qc746tx/MZ8BoTyjoCEX0bO1D2POw+K/APhCDXQLsG0zWd0ZQnIvqrUYsPAJkTGDzNdbr98wAdjPWPGgSnVB6qSelo9sJ5yUgk6l1sRIRgl6UONMVDk2Ih7GIKxYT2xcsJ5sOC4RVE/cTq61K3uD7QUF8k5q1CbW3O1XYt2C7LiQ144h+i5GWHt0epi8Q8tNJsVAiN7ZJ0wioefT34vdXX1hEvgFZ8o+at7cs3RHKYDJmQZeNp7/RW+t+RAGiTQwlwTnIr1mG6HoVujYQn4lwD8ZybfFYGqls8MRPWFL40T2GXCsWgkbiAYKxWEl8j0JiborJ9CWwP9iEpDOjE4pa/NRCk4QUk9C3G8J6HIPNrZ2ZwLUr/QZm8Sic3SUl7bSB6ADbgT81OEBNSg9y2zFWCTwO+Dhsj90nzOE/otgejRbemvyJ0jAakJTrEcantSSyJlbNDuzROCUX1OUPzSTjuMZoaVnWvOUVgQ9isaXLyFl4i7sJ0foGFEtAeiuiXgaia1CHFmisHSGtMIU8glDOJ5YHYdBoy1DnEY3RMtzaEqBcdy8sIrJXY2gZybk3kIExdkwstdg6ikg1IG8OI6/2C9NstLHoYHf6r/n8rmosPgfLxDw4f3+unUqqn2+O7Hvi6jHAxKmrGy9eO3CYEHIeAlOP0KjKrXJpAA72ogE55jQMNyRb4ZIRKq+ljCEyfyazgdN0uc0aBEILLYvLllc01yvrJR9lDyJndhMIfo7t+zHiUVhtnV207d3KwEk17jNCpaVkDBEelcRFOBlX0JCJSBS2KLKQchA619Hu9GSdx0GfjnBNjzqVlJVBr+NFPWrFs4ETfRK6tdh9N4yKkISV4ebAxitgRMF0Cq95CS/PnvbOIuqYu7bZdf15ilZ76A3XwAJDOn5LkwJvfloTR2hxjadYSl6KCYlqlav84Oi/4HC7n1H9y20OGPj8Sazc0Alq5Y7QU3/uOHtkxFSPquaR9eIIgcxtOBVjUSMOwAR7TU0wjFirv6lqSO4MMJoiMh3F8BnJL+07Sgi1wjss92ZmOhnJF6Y6DvNuDUqltARf+PurwKnCqZ5WXHLULaE3Ie9wz3Mo/+/phUGqWjiuKJO1iz4lvHJhiWsCAAeQ9fa1RRtEIsTUvY8I9yTiHTgXm/Rkf0hJciUydBHW2Y8H9w4em5cdu06E0FsVZw/hVrcb7Ee1BAPTPqykmNtiLPzq+95aVwFe3K/h3tWAs5OWnSPui/Vq34fAeBVO1tC8dFdZLCDV/e5Q8H115WUhxqg6BXJx22YTQjX9Gtt7FEXLfvOmmozyp+7jOOLrccoeB7HTONXJCQGLqsqrARi92O8e1x9ktE8zZK7GchkoKYNwsou0Xkk7QmpwkgJgTgHcpF5W4/5qke87JuwI4tRTgPVacYT8FdQFxtWI1WPej92FGtQfUrC5KpnfOEIKILo7qvF5040bzPxkBqnSVVWc2Y03weFEf70IVc3pOIX93YRYlnurcwcmGqRyrHI20V8vQgpgcXg1alI2ZTvnJhqkctzR1rwR1RgBuNii77KL40hPF0qwfRFfl8cSplM6xKd4I0rNFO00KSE1KTj8NgrpLpDarMH9I7EX0XZeCXvUo4wT3prcAmnJrDhlPwzwHxHr2M4zv9fXEz7xr7VLR+B/Ba9M/F1UunUAAAAASUVORK5CYII=;" vertex="1" parent="1">
          <mxGeometry x="810" y="200" width="80" height="80" as="geometry" />
        </mxCell>
        <mxCell id="3XCIaTO3jlM5BmFAubP3-4" value="" style="endArrow=none;dashed=1;html=1;dashPattern=1 3;strokeWidth=2;rounded=0;entryX=0;entryY=0.5;entryDx=0;entryDy=0;exitX=1;exitY=0.5;exitDx=0;exitDy=0;edgeStyle=orthogonalEdgeStyle;" edge="1" parent="1" source="AJm3aPvggbGKYEIz6-j--4" target="3XCIaTO3jlM5BmFAubP3-1">
          <mxGeometry width="50" height="50" relative="1" as="geometry">
            <mxPoint x="470" y="270" as="sourcePoint" />
            <mxPoint x="550" y="270" as="targetPoint" />
          </mxGeometry>
        </mxCell>
        <mxCell id="3XCIaTO3jlM5BmFAubP3-5" value="" style="endArrow=none;dashed=1;html=1;dashPattern=1 3;strokeWidth=2;rounded=0;entryX=0;entryY=0.5;entryDx=0;entryDy=0;exitX=1;exitY=0.5;exitDx=0;exitDy=0;edgeStyle=orthogonalEdgeStyle;" edge="1" parent="1" source="AJm3aPvggbGKYEIz6-j--4" target="3XCIaTO3jlM5BmFAubP3-3">
          <mxGeometry width="50" height="50" relative="1" as="geometry">
            <mxPoint x="800" y="260" as="sourcePoint" />
            <mxPoint x="880" y="180" as="targetPoint" />
            <Array as="points">
              <mxPoint x="760" y="160" />
              <mxPoint x="760" y="240" />
            </Array>
          </mxGeometry>
        </mxCell>
        <mxCell id="nAj18vZaa3cp3x-qRwEU-1" value="Access Mode&lt;div&gt;&lt;br&gt;&lt;/div&gt;&lt;div&gt;- ReadWriteOnce&lt;/div&gt;&lt;div&gt;- ReadOnlyMany&lt;/div&gt;&lt;div&gt;- ReadWriteMany&lt;/div&gt;&lt;div&gt;- ReadWriteOncePod&lt;/div&gt;" style="text;html=1;align=center;verticalAlign=middle;whiteSpace=wrap;rounded=0;" vertex="1" parent="1">
          <mxGeometry x="620" y="230" width="120" height="60" as="geometry" />
        </mxCell>
        <mxCell id="M8WxYHLzhYrkhE0hYgOz-1" value="운영자" style="shape=umlActor;verticalLabelPosition=bottom;verticalAlign=top;html=1;outlineConnect=0;" vertex="1" parent="1">
          <mxGeometry x="505" y="270" width="30" height="60" as="geometry" />
        </mxCell>
        <mxCell id="M8WxYHLzhYrkhE0hYgOz-2" style="edgeStyle=orthogonalEdgeStyle;rounded=0;orthogonalLoop=1;jettySize=auto;html=1;entryX=0.5;entryY=1;entryDx=0;entryDy=0;" edge="1" parent="1" source="M8WxYHLzhYrkhE0hYgOz-1" target="AJm3aPvggbGKYEIz6-j--5">
          <mxGeometry relative="1" as="geometry">
            <mxPoint x="270" y="270" as="sourcePoint" />
            <mxPoint x="360" y="270" as="targetPoint" />
          </mxGeometry>
        </mxCell>
        <mxCell id="M8WxYHLzhYrkhE0hYgOz-3" value="생성" style="edgeLabel;html=1;align=center;verticalAlign=middle;resizable=0;points=[];strokeColor=default;fontFamily=Helvetica;fontSize=12;fontColor=default;labelBackgroundColor=default;fillColor=default;" vertex="1" connectable="0" parent="M8WxYHLzhYrkhE0hYgOz-2">
          <mxGeometry x="0.3556" y="-3" relative="1" as="geometry">
            <mxPoint as="offset" />
          </mxGeometry>
        </mxCell>
        <mxCell id="wTFBoPIjZpMoNCLdZ4ww-1" value="VolumeBindingMode&lt;br&gt;&lt;div&gt;&lt;br&gt;&lt;/div&gt;&lt;div&gt;- WaitForFirstConsumer&lt;/div&gt;&lt;div&gt;-&amp;nbsp;&amp;nbsp;Immediate&lt;/div&gt;" style="text;html=1;align=center;verticalAlign=middle;whiteSpace=wrap;rounded=0;" vertex="1" parent="1">
          <mxGeometry x="425" y="50" width="145" height="60" as="geometry" />
        </mxCell>
        <mxCell id="wTFBoPIjZpMoNCLdZ4ww-2" value="ReclaimPolicy&lt;br&gt;&lt;div&gt;&lt;br&gt;&lt;/div&gt;&lt;div&gt;- Delete&lt;/div&gt;&lt;div&gt;-&amp;nbsp; Retain&lt;/div&gt;&lt;div&gt;- Recycle&lt;/div&gt;" style="text;html=1;align=center;verticalAlign=middle;whiteSpace=wrap;rounded=0;" vertex="1" parent="1">
          <mxGeometry x="425" y="-30" width="135" height="70" as="geometry" />
        </mxCell>
      </root>
    </mxGraphModel>
  </diagram>
  <diagram id="B_vWGuHRuWMjnElvquPb" name="Static-Provisioning">
    <mxGraphModel dx="1545" dy="836" grid="1" gridSize="10" guides="1" tooltips="1" connect="1" arrows="1" fold="1" page="1" pageScale="1" pageWidth="827" pageHeight="1169" math="0" shadow="0">
      <root>
        <mxCell id="0" />
        <mxCell id="1" parent="0" />
        <mxCell id="bJ2_P8YAT7gILBOLgxkf-1" style="edgeStyle=orthogonalEdgeStyle;rounded=0;orthogonalLoop=1;jettySize=auto;html=1;" parent="1" source="bJ2_P8YAT7gILBOLgxkf-3" target="bJ2_P8YAT7gILBOLgxkf-7" edge="1">
          <mxGeometry relative="1" as="geometry" />
        </mxCell>
        <mxCell id="bJ2_P8YAT7gILBOLgxkf-2" value="배포" style="edgeLabel;html=1;align=center;verticalAlign=middle;resizable=0;points=[];strokeColor=default;fontFamily=Helvetica;fontSize=12;fontColor=default;labelBackgroundColor=default;fillColor=default;" parent="bJ2_P8YAT7gILBOLgxkf-1" vertex="1" connectable="0">
          <mxGeometry x="0.3556" y="-3" relative="1" as="geometry">
            <mxPoint as="offset" />
          </mxGeometry>
        </mxCell>
        <mxCell id="bJ2_P8YAT7gILBOLgxkf-3" value="개발자" style="shape=umlActor;verticalLabelPosition=bottom;verticalAlign=top;html=1;outlineConnect=0;" parent="1" vertex="1">
          <mxGeometry x="40" y="450" width="30" height="60" as="geometry" />
        </mxCell>
        <mxCell id="bJ2_P8YAT7gILBOLgxkf-4" value="" style="shape=image;verticalLabelPosition=bottom;labelBackgroundColor=default;verticalAlign=top;aspect=fixed;imageAspect=0;editableCssRules=.*;image=data:image/svg+xml,PHN2ZyB4bWxucz0iaHR0cDovL3d3dy53My5vcmcvMjAwMC9zdmciIGlkPSJzdmcxMzgyNiIgdmVyc2lvbj0iMS4xIiB2aWV3Qm94PSIxLjE5MjA5Mjg5NTUwNzgxMjVlLTcgLTMuNTc2Mjc4Njg2NTIzNDM3NWUtNyAxOC4wMzUzMzM2MzM0MjI4NSAxNy41MDAzNzU3NDc2ODA2NjQiIGhlaWdodD0iMTcuNTAwMzc1NzQ3NjgwNjY0IiB3aWR0aD0iMTguMDM1MzMzNjMzNDIyODUiPiYjeGE7ICA8ZGVmcyBpZD0iZGVmczEzODIwIi8+JiN4YTsgICYjeGE7ICA8bWV0YWRhdGEgaWQ9Im1ldGFkYXRhMTM4MjMiPiYjeGE7ICAgICYjeGE7ICAgICAgJiN4YTsgICAgICAgIGltYWdlL3N2Zyt4bWwmI3hhOyAgICAgICAgJiN4YTsgICAgICAgICYjeGE7ICAgICAgJiN4YTsgICAgJiN4YTsgIDwvbWV0YWRhdGE+JiN4YTsgIDxnIHRyYW5zZm9ybT0idHJhbnNsYXRlKC0wLjk5MjYyNjM4LC0xLjE3NDE4MSkiIGlkPSJsYXllcjEiPiYjeGE7ICAgIDxnIHRyYW5zZm9ybT0ibWF0cml4KDEuMDE0ODg4NywwLDAsMS4wMTQ4ODg3LDE2LjkwMjE0NiwtMi42OTg3MjYpIiBpZD0iZzcwIj4mI3hhOyAgICAgIDxwYXRoIHN0eWxlPSJmaWxsOiMzMjZjZTU7ZmlsbC1vcGFjaXR5OjE7c3Ryb2tlOm5vbmU7c3Ryb2tlLXdpZHRoOjA7c3Ryb2tlLW1pdGVybGltaXQ6NDtzdHJva2UtZGFzaGFycmF5Om5vbmU7c3Ryb2tlLW9wYWNpdHk6MSIgZD0ibSAtNi44NDkyMDE1LDQuMjcyNDY2OCBhIDEuMTE5MTI1NSwxLjEwOTk2NzEgMCAwIDAgLTAuNDI4ODgxOCwwLjEwODUzMDMgbCAtNS44NTI0MDM3LDIuNzk2MzM5NCBhIDEuMTE5MTI1NSwxLjEwOTk2NzEgMCAwIDAgLTAuNjA1NTI0LDAuNzUyOTc1OSBsIC0xLjQ0MzgyOCw2LjI4MTI4NDYgYSAxLjExOTEyNTUsMS4xMDk5NjcxIDAgMCAwIDAuMTUxOTQzLDAuODUxMDI4IDEuMTE5MTI1NSwxLjEwOTk2NzEgMCAwIDAgMC4wNjM2MiwwLjA4ODMyIGwgNC4wNTA4LDUuMDM2NTU1IGEgMS4xMTkxMjU1LDEuMTA5OTY3MSAwIDAgMCAwLjg3NDk3OSwwLjQxNzY1NCBsIDYuNDk2MTAxMSwtMC4wMDE1IGEgMS4xMTkxMjU1LDEuMTA5OTY3MSAwIDAgMCAwLjg3NDk3ODgsLTAuNDE2OTA2IEwgMS4zODE4ODcyLDE1LjE0OTQ1MyBBIDEuMTE5MTI1NSwxLjEwOTk2NzEgMCAwIDAgMS41OTgxOTg2LDE0LjIxMDEwNCBMIDAuMTUyMTI2NTcsNy45Mjg4MTU0IEEgMS4xMTkxMjU1LDEuMTA5OTY3MSAwIDAgMCAtMC40NTMzOTc5NCw3LjE3NTgzOTYgTCAtNi4zMDY1NDk2LDQuMzgwOTk3MSBBIDEuMTE5MTI1NSwxLjEwOTk2NzEgMCAwIDAgLTYuODQ5MjAxNSw0LjI3MjQ2NjggWiIgaWQ9InBhdGgzMDU1Ii8+JiN4YTsgICAgICA8cGF0aCB0ZXh0LWFuY2hvcj0ic3RhcnQiIHN0eWxlPSJjb2xvcjojMDAwMDAwO2ZvbnQtc3R5bGU6bm9ybWFsO2ZvbnQtdmFyaWFudDpub3JtYWw7Zm9udC13ZWlnaHQ6bm9ybWFsO2ZvbnQtc3RyZXRjaDpub3JtYWw7Zm9udC1zaXplOm1lZGl1bTtsaW5lLWhlaWdodDpub3JtYWw7Zm9udC1mYW1pbHk6U2FuczstaW5rc2NhcGUtZm9udC1zcGVjaWZpY2F0aW9uOlNhbnM7dGV4dC1pbmRlbnQ6MDt0ZXh0LWFsaWduOnN0YXJ0O3RleHQtZGVjb3JhdGlvbjpub25lO3RleHQtZGVjb3JhdGlvbi1saW5lOm5vbmU7bGV0dGVyLXNwYWNpbmc6bm9ybWFsO3dvcmQtc3BhY2luZzpub3JtYWw7dGV4dC10cmFuc2Zvcm06bm9uZTt3cml0aW5nLW1vZGU6bHItdGI7ZGlyZWN0aW9uOmx0cjtiYXNlbGluZS1zaGlmdDpiYXNlbGluZTtkaXNwbGF5OmlubGluZTtvdmVyZmxvdzp2aXNpYmxlO3Zpc2liaWxpdHk6dmlzaWJsZTtmaWxsOiNmZmZmZmY7ZmlsbC1vcGFjaXR5OjE7ZmlsbC1ydWxlOm5vbnplcm87c3Ryb2tlOm5vbmU7c3Ryb2tlLXdpZHRoOjA7c3Ryb2tlLW1pdGVybGltaXQ6NDtzdHJva2UtZGFzaGFycmF5Om5vbmU7bWFya2VyOm5vbmU7ZW5hYmxlLWJhY2tncm91bmQ6YWNjdW11bGF0ZSIgZD0iTSAtNi44NTIzNDM1LDMuODE3NjM3MiBBIDEuMTgxNDMwNCwxLjE3MTc2MiAwIDAgMCAtNy4zMDQ0Mjg0LDMuOTMyOTA0IGwgLTYuMTc4NzQyNiwyLjk1MTI3NTggYSAxLjE4MTQzMDQsMS4xNzE3NjIgMCAwIDAgLTAuNjM5MjA2LDAuNzk0ODkxIGwgLTEuNTIzOTE1LDYuNjMwODI4MiBhIDEuMTgxNDMwNCwxLjE3MTc2MiAwIDAgMCAwLjE2MDE3NSwwLjg5ODkzIDEuMTgxNDMwNCwxLjE3MTc2MiAwIDAgMCAwLjA2NzM2LDAuMDkyODEgbCA0LjI3NjA5NCw1LjMxNzIzNiBhIDEuMTgxNDMwNCwxLjE3MTc2MiAwIDAgMCAwLjkyMzYzLDAuNDQwODU4IGwgNi44NTc2MTg4LC0wLjAwMTUgYSAxLjE4MTQzMDQsMS4xNzE3NjIgMCAwIDAgMC45MjM2MzA4LC0wLjQ0MDExIGwgNC4yNzQ1OTY2LC01LjMxNzk4NSBhIDEuMTgxNDMwNCwxLjE3MTc2MiAwIDAgMCAwLjIyODI4OCwtMC45OTA5OTMgTCAwLjUzODk0NDM5LDcuNjc3NTczOCBBIDEuMTgxNDMwNCwxLjE3MTc2MiAwIDAgMCAtMC4xMDAyNjEwMSw2Ljg4MzQzMTMgTCAtNi4yNzkwMDM3LDMuOTMyMTU1NSBBIDEuMTgxNDMwNCwxLjE3MTc2MiAwIDAgMCAtNi44NTIzNDM1LDMuODE3NjM3MiBaIG0gMC4wMDI5OSwwLjQ1NTA3ODkgYSAxLjExOTEyNTUsMS4xMDk5NjcxIDAgMCAxIDAuNTQyNjUxNywwLjEwODUzMDMgbCA1Ljg1MzE1MTY5LDIuNzk0ODQyNSBBIDEuMTE5MTI1NSwxLjEwOTk2NzEgMCAwIDEgMC4xNTE5NzgxMSw3LjkyOTA2NDggTCAxLjU5ODA1MSwxNC4yMTAzNSBhIDEuMTE5MTI1NSwxLjEwOTk2NzEgMCAwIDEgLTAuMjE2MzEyMywwLjkzOTM0OCBsIC00LjA0OTMwMzIsNS4wMzczMDQgYSAxLjExOTEyNTUsMS4xMDk5NjcxIDAgMCAxIC0wLjg3NDk3ODksMC40MTY5MDYgbCAtNi40OTYxMDA2LDAuMDAxNSBhIDEuMTE5MTI1NSwxLjEwOTk2NzEgMCAwIDEgLTAuODc0OTc5LC0wLjQxNzY1MiBsIC00LjA1MDgsLTUuMDM2NTU0IGEgMS4xMTkxMjU1LDEuMTA5OTY3MSAwIDAgMSAtMC4wNjM2MiwtMC4wODgzMiAxLjExOTEyNTUsMS4xMDk5NjcxIDAgMCAxIC0wLjE1MTk0MiwtMC44NTEwMjggbCAxLjQ0MzgyNywtNi4yODEyODUzIGEgMS4xMTkxMjU1LDEuMTA5OTY3MSAwIDAgMSAwLjYwNTUyNCwtMC43NTI5NzU4IGwgNS44NTI0MDM2LC0yLjc5NjMzOTUgYSAxLjExOTEyNTUsMS4xMDk5NjcxIDAgMCAxIDAuNDI4ODgxOSwtMC4xMDg1MzAzIHoiIGlkPSJwYXRoMzA1NC0yLTkiLz4mI3hhOyAgICA8L2c+JiN4YTsgICAgPHRleHQgeG1sOnNwYWNlPSJwcmVzZXJ2ZSIgc3R5bGU9ImZvbnQtc3R5bGU6bm9ybWFsO2ZvbnQtd2VpZ2h0Om5vcm1hbDtmb250LXNpemU6MTAuNTgzMzMzMDJweDtsaW5lLWhlaWdodDo2LjYxNDU4MzQ5cHg7Zm9udC1mYW1pbHk6U2FucztsZXR0ZXItc3BhY2luZzowcHg7d29yZC1zcGFjaW5nOjBweDtmaWxsOiNmZmZmZmY7ZmlsbC1vcGFjaXR5OjE7c3Ryb2tlOm5vbmU7c3Ryb2tlLXdpZHRoOjAuMjY0NTgzMzJweDtzdHJva2UtbGluZWNhcDpidXR0O3N0cm9rZS1saW5lam9pbjptaXRlcjtzdHJva2Utb3BhY2l0eToxIiB4PSI5LjkzMDM2NzUiIHk9IjE2LjgxMTc3NSIgaWQ9InRleHQyMDY2Ij48dHNwYW4gaWQ9InRzcGFuMjA2NCIgeD0iOS45MzAzNjc1IiB5PSIxNi44MTE3NzUiIHRleHQtYW5jaG9yPSJtaWRkbGUiIHN0eWxlPSJmb250LXN0eWxlOm5vcm1hbDtmb250LXZhcmlhbnQ6bm9ybWFsO2ZvbnQtd2VpZ2h0Om5vcm1hbDtmb250LXN0cmV0Y2g6bm9ybWFsO2ZvbnQtc2l6ZToyLjgyMjIyMjIzcHg7Zm9udC1mYW1pbHk6QXJpYWw7LWlua3NjYXBlLWZvbnQtc3BlY2lmaWNhdGlvbjonQXJpYWwsIE5vcm1hbCc7dGV4dC1hbGlnbjpjZW50ZXI7d3JpdGluZy1tb2RlOmxyLXRiO2ZpbGw6I2ZmZmZmZjtmaWxsLW9wYWNpdHk6MTtzdHJva2Utd2lkdGg6MC4yNjQ1ODMzMnB4Ij5wdmM8L3RzcGFuPjwvdGV4dD4mI3hhOyAgICA8cGF0aCBzdHlsZT0iZmlsbDpub25lO2ZpbGwtcnVsZTpldmVub2RkO3N0cm9rZTojZmZmZmZmO3N0cm9rZS13aWR0aDowLjUyOTE2NjY0O3N0cm9rZS1saW5lY2FwOmJ1dHQ7c3Ryb2tlLWxpbmVqb2luOnJvdW5kO3N0cm9rZS1taXRlcmxpbWl0OjEwO3N0cm9rZS1kYXNoYXJyYXk6Mi4xMTY2NjY2OSwgMC41MjkxNjY2ODtzdHJva2UtZGFzaG9mZnNldDowO3N0cm9rZS1vcGFjaXR5OjEiIGQ9Im0gMTQuNjM5NDYsOC4wNzY2NDEzIDAsMCBjIDAsMC42MjExMjA3IC0yLjA3MjU1LDEuMTI0NjM5MSAtNC42MjkxNiwxLjEyNDYzOTEgLTIuNTU2NjIyNCwwIC00LjYyOTE3MywtMC41MDM1MTg0IC00LjYyOTE3MywtMS4xMjQ2MzkxIGwgMCwwIGMgMCwtMC42MjExMTkgMi4wNzI1NTA2LC0xLjEyNDYzNyA0LjYyOTE3MywtMS4xMjQ2MzcgMi41NTY2MSwwIDQuNjI5MTYsMC41MDM1MTggNC42MjkxNiwxLjEyNDYzNyBsIDAsMy4wNDIzOTE3IGMgMCwwLjYyMTEyIC0yLjA3MjU1LDEuMTI0NjM4IC00LjYyOTE2LDEuMTI0NjM4IC0yLjU1NjYyMjQsMCAtNC42MjkxNzMsLTAuNTAzNTE4IC00LjYyOTE3MywtMS4xMjQ2MzggbCAwLC0zLjA0MjM5MTciIGlkPSJwYXRoMTEzNCIvPiYjeGE7ICA8L2c+JiN4YTs8L3N2Zz4=;" parent="1" vertex="1">
          <mxGeometry x="320" y="440" width="80" height="80" as="geometry" />
        </mxCell>
        <mxCell id="bJ2_P8YAT7gILBOLgxkf-5" value="" style="shape=image;verticalLabelPosition=bottom;labelBackgroundColor=default;verticalAlign=top;aspect=fixed;imageAspect=0;editableCssRules=.*;image=data:image/svg+xml,PHN2ZyB4bWxucz0iaHR0cDovL3d3dy53My5vcmcvMjAwMC9zdmciIGlkPSJzdmcxMzgyNiIgdmVyc2lvbj0iMS4xIiB2aWV3Qm94PSIxLjE5MjA5Mjg5NTUwNzgxMjVlLTcgLTMuNTc2Mjc4Njg2NTIzNDM3NWUtNyAxOC4wMzUzMzM2MzM0MjI4NSAxNy41MDAzNzU3NDc2ODA2NjQiIGhlaWdodD0iMTcuNTAwMzc1NzQ3NjgwNjY0IiB3aWR0aD0iMTguMDM1MzMzNjMzNDIyODUiPiYjeGE7ICA8ZGVmcyBpZD0iZGVmczEzODIwIi8+JiN4YTsgICYjeGE7ICA8bWV0YWRhdGEgaWQ9Im1ldGFkYXRhMTM4MjMiPiYjeGE7ICAgICYjeGE7ICAgICAgJiN4YTsgICAgICAgIGltYWdlL3N2Zyt4bWwmI3hhOyAgICAgICAgJiN4YTsgICAgICAgICYjeGE7ICAgICAgJiN4YTsgICAgJiN4YTsgIDwvbWV0YWRhdGE+JiN4YTsgIDxnIHRyYW5zZm9ybT0idHJhbnNsYXRlKC0wLjk5MjYyNjM4LC0xLjE3NDE4MSkiIGlkPSJsYXllcjEiPiYjeGE7ICAgIDxnIHRyYW5zZm9ybT0ibWF0cml4KDEuMDE0ODg4NywwLDAsMS4wMTQ4ODg3LDE2LjkwMjE0NiwtMi42OTg3MjYpIiBpZD0iZzcwIj4mI3hhOyAgICAgIDxwYXRoIHN0eWxlPSJmaWxsOiMzMjZjZTU7ZmlsbC1vcGFjaXR5OjE7c3Ryb2tlOm5vbmU7c3Ryb2tlLXdpZHRoOjA7c3Ryb2tlLW1pdGVybGltaXQ6NDtzdHJva2UtZGFzaGFycmF5Om5vbmU7c3Ryb2tlLW9wYWNpdHk6MSIgZD0ibSAtNi44NDkyMDE1LDQuMjcyNDY2OCBhIDEuMTE5MTI1NSwxLjEwOTk2NzEgMCAwIDAgLTAuNDI4ODgxOCwwLjEwODUzMDMgbCAtNS44NTI0MDM3LDIuNzk2MzM5NCBhIDEuMTE5MTI1NSwxLjEwOTk2NzEgMCAwIDAgLTAuNjA1NTI0LDAuNzUyOTc1OSBsIC0xLjQ0MzgyOCw2LjI4MTI4NDYgYSAxLjExOTEyNTUsMS4xMDk5NjcxIDAgMCAwIDAuMTUxOTQzLDAuODUxMDI4IDEuMTE5MTI1NSwxLjEwOTk2NzEgMCAwIDAgMC4wNjM2MiwwLjA4ODMyIGwgNC4wNTA4LDUuMDM2NTU1IGEgMS4xMTkxMjU1LDEuMTA5OTY3MSAwIDAgMCAwLjg3NDk3OSwwLjQxNzY1NCBsIDYuNDk2MTAxMSwtMC4wMDE1IGEgMS4xMTkxMjU1LDEuMTA5OTY3MSAwIDAgMCAwLjg3NDk3ODgsLTAuNDE2OTA2IEwgMS4zODE4ODcyLDE1LjE0OTQ1MyBBIDEuMTE5MTI1NSwxLjEwOTk2NzEgMCAwIDAgMS41OTgxOTg2LDE0LjIxMDEwNCBMIDAuMTUyMTI2NTcsNy45Mjg4MTU0IEEgMS4xMTkxMjU1LDEuMTA5OTY3MSAwIDAgMCAtMC40NTMzOTc5NCw3LjE3NTgzOTYgTCAtNi4zMDY1NDk2LDQuMzgwOTk3MSBBIDEuMTE5MTI1NSwxLjEwOTk2NzEgMCAwIDAgLTYuODQ5MjAxNSw0LjI3MjQ2NjggWiIgaWQ9InBhdGgzMDU1Ii8+JiN4YTsgICAgICA8cGF0aCB0ZXh0LWFuY2hvcj0ic3RhcnQiIHN0eWxlPSJjb2xvcjojMDAwMDAwO2ZvbnQtc3R5bGU6bm9ybWFsO2ZvbnQtdmFyaWFudDpub3JtYWw7Zm9udC13ZWlnaHQ6bm9ybWFsO2ZvbnQtc3RyZXRjaDpub3JtYWw7Zm9udC1zaXplOm1lZGl1bTtsaW5lLWhlaWdodDpub3JtYWw7Zm9udC1mYW1pbHk6U2FuczstaW5rc2NhcGUtZm9udC1zcGVjaWZpY2F0aW9uOlNhbnM7dGV4dC1pbmRlbnQ6MDt0ZXh0LWFsaWduOnN0YXJ0O3RleHQtZGVjb3JhdGlvbjpub25lO3RleHQtZGVjb3JhdGlvbi1saW5lOm5vbmU7bGV0dGVyLXNwYWNpbmc6bm9ybWFsO3dvcmQtc3BhY2luZzpub3JtYWw7dGV4dC10cmFuc2Zvcm06bm9uZTt3cml0aW5nLW1vZGU6bHItdGI7ZGlyZWN0aW9uOmx0cjtiYXNlbGluZS1zaGlmdDpiYXNlbGluZTtkaXNwbGF5OmlubGluZTtvdmVyZmxvdzp2aXNpYmxlO3Zpc2liaWxpdHk6dmlzaWJsZTtmaWxsOiNmZmZmZmY7ZmlsbC1vcGFjaXR5OjE7ZmlsbC1ydWxlOm5vbnplcm87c3Ryb2tlOm5vbmU7c3Ryb2tlLXdpZHRoOjA7c3Ryb2tlLW1pdGVybGltaXQ6NDtzdHJva2UtZGFzaGFycmF5Om5vbmU7bWFya2VyOm5vbmU7ZW5hYmxlLWJhY2tncm91bmQ6YWNjdW11bGF0ZSIgZD0iTSAtNi44NTIzNDM1LDMuODE3NjM3MiBBIDEuMTgxNDMwNCwxLjE3MTc2MiAwIDAgMCAtNy4zMDQ0Mjg0LDMuOTMyOTA0IGwgLTYuMTc4NzQyNiwyLjk1MTI3NTggYSAxLjE4MTQzMDQsMS4xNzE3NjIgMCAwIDAgLTAuNjM5MjA2LDAuNzk0ODkxIGwgLTEuNTIzOTE1LDYuNjMwODI4MiBhIDEuMTgxNDMwNCwxLjE3MTc2MiAwIDAgMCAwLjE2MDE3NSwwLjg5ODkzIDEuMTgxNDMwNCwxLjE3MTc2MiAwIDAgMCAwLjA2NzM2LDAuMDkyODEgbCA0LjI3NjA5NCw1LjMxNzIzNiBhIDEuMTgxNDMwNCwxLjE3MTc2MiAwIDAgMCAwLjkyMzYzLDAuNDQwODU4IGwgNi44NTc2MTg4LC0wLjAwMTUgYSAxLjE4MTQzMDQsMS4xNzE3NjIgMCAwIDAgMC45MjM2MzA4LC0wLjQ0MDExIGwgNC4yNzQ1OTY2LC01LjMxNzk4NSBhIDEuMTgxNDMwNCwxLjE3MTc2MiAwIDAgMCAwLjIyODI4OCwtMC45OTA5OTMgTCAwLjUzODk0NDM5LDcuNjc3NTczOCBBIDEuMTgxNDMwNCwxLjE3MTc2MiAwIDAgMCAtMC4xMDAyNjEwMSw2Ljg4MzQzMTMgTCAtNi4yNzkwMDM3LDMuOTMyMTU1NSBBIDEuMTgxNDMwNCwxLjE3MTc2MiAwIDAgMCAtNi44NTIzNDM1LDMuODE3NjM3MiBaIG0gMC4wMDI5OSwwLjQ1NTA3ODkgYSAxLjExOTEyNTUsMS4xMDk5NjcxIDAgMCAxIDAuNTQyNjUxNywwLjEwODUzMDMgbCA1Ljg1MzE1MTY5LDIuNzk0ODQyNSBBIDEuMTE5MTI1NSwxLjEwOTk2NzEgMCAwIDEgMC4xNTE5NzgxMSw3LjkyOTA2NDggTCAxLjU5ODA1MSwxNC4yMTAzNSBhIDEuMTE5MTI1NSwxLjEwOTk2NzEgMCAwIDEgLTAuMjE2MzEyMywwLjkzOTM0OCBsIC00LjA0OTMwMzIsNS4wMzczMDQgYSAxLjExOTEyNTUsMS4xMDk5NjcxIDAgMCAxIC0wLjg3NDk3ODksMC40MTY5MDYgbCAtNi40OTYxMDA2LDAuMDAxNSBhIDEuMTE5MTI1NSwxLjEwOTk2NzEgMCAwIDEgLTAuODc0OTc5LC0wLjQxNzY1MiBsIC00LjA1MDgsLTUuMDM2NTU0IGEgMS4xMTkxMjU1LDEuMTA5OTY3MSAwIDAgMSAtMC4wNjM2MiwtMC4wODgzMiAxLjExOTEyNTUsMS4xMDk5NjcxIDAgMCAxIC0wLjE1MTk0MiwtMC44NTEwMjggbCAxLjQ0MzgyNywtNi4yODEyODUzIGEgMS4xMTkxMjU1LDEuMTA5OTY3MSAwIDAgMSAwLjYwNTUyNCwtMC43NTI5NzU4IGwgNS44NTI0MDM2LC0yLjc5NjMzOTUgYSAxLjExOTEyNTUsMS4xMDk5NjcxIDAgMCAxIDAuNDI4ODgxOSwtMC4xMDg1MzAzIHoiIGlkPSJwYXRoMzA1NC0yLTkiLz4mI3hhOyAgICA8L2c+JiN4YTsgICAgPHRleHQgeG1sOnNwYWNlPSJwcmVzZXJ2ZSIgc3R5bGU9ImZvbnQtc3R5bGU6bm9ybWFsO2ZvbnQtd2VpZ2h0Om5vcm1hbDtmb250LXNpemU6MTAuNTgzMzMzMDJweDtsaW5lLWhlaWdodDo2LjYxNDU4MzQ5cHg7Zm9udC1mYW1pbHk6U2FucztsZXR0ZXItc3BhY2luZzowcHg7d29yZC1zcGFjaW5nOjBweDtmaWxsOiNmZmZmZmY7ZmlsbC1vcGFjaXR5OjE7c3Ryb2tlOm5vbmU7c3Ryb2tlLXdpZHRoOjAuMjY0NTgzMzJweDtzdHJva2UtbGluZWNhcDpidXR0O3N0cm9rZS1saW5lam9pbjptaXRlcjtzdHJva2Utb3BhY2l0eToxIiB4PSI5LjkzMzgxMjEiIHk9IjE2LjgxMTc3NSIgaWQ9InRleHQyMDY2Ij48dHNwYW4gaWQ9InRzcGFuMjA2NCIgeD0iOS45MzM4MTIxIiB5PSIxNi44MTE3NzUiIHRleHQtYW5jaG9yPSJtaWRkbGUiIHN0eWxlPSJmb250LXN0eWxlOm5vcm1hbDtmb250LXZhcmlhbnQ6bm9ybWFsO2ZvbnQtd2VpZ2h0Om5vcm1hbDtmb250LXN0cmV0Y2g6bm9ybWFsO2ZvbnQtc2l6ZToyLjgyMjIyMjIzcHg7Zm9udC1mYW1pbHk6QXJpYWw7LWlua3NjYXBlLWZvbnQtc3BlY2lmaWNhdGlvbjonQXJpYWwsIE5vcm1hbCc7dGV4dC1hbGlnbjpjZW50ZXI7d3JpdGluZy1tb2RlOmxyLXRiO2ZpbGw6I2ZmZmZmZjtmaWxsLW9wYWNpdHk6MTtzdHJva2Utd2lkdGg6MC4yNjQ1ODMzMnB4Ij5wdjwvdHNwYW4+PC90ZXh0PiYjeGE7ICAgIDxnIHRyYW5zZm9ybT0idHJhbnNsYXRlKC0wLjE4OTgzMjg5LDApIiBpZD0iZzMzNDEiPiYjeGE7ICAgICAgPHBhdGggaWQ9InBhdGgxMTE0IiBkPSJtIDUuNTcwOTYxNCw3LjkxMDU4NDkgMCwwIGMgMCwwLjYyMTEyMSAyLjA3MjU0MDEsMS4xMjQ2MzkgNC42MjkxNzA2LDEuMTI0NjM5IDIuNTU2NjA5LDAgNC42MjkxNTksLTAuNTAzNTE4IDQuNjI5MTU5LC0xLjEyNDYzOSBsIDAsMy4wNDIzOTExIGMgMCwwLjYyMTEyIC0yLjA3MjU1LDEuMTI0NjM4IC00LjYyOTE1OSwxLjEyNDYzOCAtMi41NTY2MzA1LDAgLTQuNjI5MTcwNiwtMC41MDM1MTggLTQuNjI5MTcwNiwtMS4xMjQ2MzggeiIgc3R5bGU9ImZpbGw6I2ZmZmZmZjtmaWxsLXJ1bGU6ZXZlbm9kZDtzdHJva2U6bm9uZTtzdHJva2Utd2lkdGg6MC4yNjQ1ODMzMjtzdHJva2UtbGluZWNhcDpzcXVhcmU7c3Ryb2tlLW1pdGVybGltaXQ6MTAiLz4mI3hhOyAgICAgIDxwYXRoIGlkPSJwYXRoMTExNiIgZD0ibSA1LjU3MDk2MTQsNy45MTA1ODQ5IDAsMCBjIDAsLTAuNjIxMTE5IDIuMDcyNTQwMSwtMS4xMjQ2MzcgNC42MjkxNzA2LC0xLjEyNDYzNyAyLjU1NjYwOSwwIDQuNjI5MTU5LDAuNTAzNTE4IDQuNjI5MTU5LDEuMTI0NjM3IGwgMCwwIGMgMCwwLjYyMTEyMSAtMi4wNzI1NSwxLjEyNDYzOSAtNC42MjkxNTksMS4xMjQ2MzkgLTIuNTU2NjMwNSwwIC00LjYyOTE3MDYsLTAuNTAzNTE4IC00LjYyOTE3MDYsLTEuMTI0NjM5IHoiIHN0eWxlPSJmaWxsOiNmZmZmZmY7ZmlsbC1vcGFjaXR5OjE7ZmlsbC1ydWxlOmV2ZW5vZGQ7c3Ryb2tlOm5vbmU7c3Ryb2tlLXdpZHRoOjAuMjY0NTgzMzI7c3Ryb2tlLWxpbmVjYXA6c3F1YXJlO3N0cm9rZS1taXRlcmxpbWl0OjEwIi8+JiN4YTsgICAgICA8cGF0aCBpZD0icGF0aDExMjAiIGQ9Im0gMTQuODI5MjkxLDcuOTEwNTg0OSAwLDAgYyAwLDAuNjIxMTIxIC0yLjA3MjU1LDEuMTI0NjM5IC00LjYyOTE1OSwxLjEyNDYzOSAtMi41NTY2MjA1LDAgLTQuNjI5MTcwNiwtMC41MDM1MTggLTQuNjI5MTcwNiwtMS4xMjQ2MzkgbCAwLDAgYyAwLC0wLjYyMTExOSAyLjA3MjU1MDEsLTEuMTI0NjM3IDQuNjI5MTcwNiwtMS4xMjQ2MzcgMi41NTY2MDksMCA0LjYyOTE1OSwwLjUwMzUxOCA0LjYyOTE1OSwxLjEyNDYzNyBsIDAsMy4wNDIzOTExIGMgMCwwLjYyMTEyIC0yLjA3MjU1LDEuMTI0NjM4IC00LjYyOTE1OSwxLjEyNDYzOCAtMi41NTY2MjA1LDAgLTQuNjI5MTcwNiwtMC41MDM1MTggLTQuNjI5MTcwNiwtMS4xMjQ2MzggbCAwLC0zLjA0MjM5MTEiIHN0eWxlPSJmaWxsOm5vbmU7ZmlsbC1ydWxlOmV2ZW5vZGQ7c3Ryb2tlOiMzMjZjZTU7c3Ryb2tlLXdpZHRoOjAuMjY0NTgzMzI7c3Ryb2tlLWxpbmVjYXA6YnV0dDtzdHJva2UtbGluZWpvaW46cm91bmQ7c3Ryb2tlLW1pdGVybGltaXQ6MTA7c3Ryb2tlLW9wYWNpdHk6MSIvPiYjeGE7ICAgIDwvZz4mI3hhOyAgPC9nPiYjeGE7PC9zdmc+;fillColor=#FF0000;" parent="1" vertex="1">
          <mxGeometry x="480" y="440" width="80" height="80" as="geometry" />
        </mxCell>
        <mxCell id="bJ2_P8YAT7gILBOLgxkf-6" value="" style="shape=image;verticalLabelPosition=bottom;labelBackgroundColor=default;verticalAlign=top;aspect=fixed;imageAspect=0;editableCssRules=.*;image=data:image/svg+xml,PHN2ZyB4bWxucz0iaHR0cDovL3d3dy53My5vcmcvMjAwMC9zdmciIGlkPSJzdmcxMzgyNiIgdmVyc2lvbj0iMS4xIiB2aWV3Qm94PSIxLjE5MjA5Mjg5NTUwNzgxMjVlLTcgLTMuNTc2Mjc4Njg2NTIzNDM3NWUtNyAxOC4wMzUzMzM2MzM0MjI4NSAxNy41MDAzNzU3NDc2ODA2NjQiIGhlaWdodD0iMTcuNTAwMzc1NzQ3NjgwNjY0IiB3aWR0aD0iMTguMDM1MzMzNjMzNDIyODUiPiYjeGE7ICA8ZGVmcyBpZD0iZGVmczEzODIwIi8+JiN4YTsgICYjeGE7ICA8bWV0YWRhdGEgaWQ9Im1ldGFkYXRhMTM4MjMiPiYjeGE7ICAgICYjeGE7ICAgICAgJiN4YTsgICAgICAgIGltYWdlL3N2Zyt4bWwmI3hhOyAgICAgICAgJiN4YTsgICAgICAgICYjeGE7ICAgICAgJiN4YTsgICAgJiN4YTsgIDwvbWV0YWRhdGE+JiN4YTsgIDxnIHRyYW5zZm9ybT0idHJhbnNsYXRlKC0wLjk5MjYyNjM4LC0xLjE3NDE4MSkiIGlkPSJsYXllcjEiPiYjeGE7ICAgIDxnIHRyYW5zZm9ybT0ibWF0cml4KDEuMDE0ODg4NywwLDAsMS4wMTQ4ODg3LDE2LjkwMjE0NiwtMi42OTg3MjYpIiBpZD0iZzcwIj4mI3hhOyAgICAgIDxwYXRoIHN0eWxlPSJmaWxsOiMzMjZjZTU7ZmlsbC1vcGFjaXR5OjE7c3Ryb2tlOm5vbmU7c3Ryb2tlLXdpZHRoOjA7c3Ryb2tlLW1pdGVybGltaXQ6NDtzdHJva2UtZGFzaGFycmF5Om5vbmU7c3Ryb2tlLW9wYWNpdHk6MSIgZD0ibSAtNi44NDkyMDE1LDQuMjcyNDY2OCBhIDEuMTE5MTI1NSwxLjEwOTk2NzEgMCAwIDAgLTAuNDI4ODgxOCwwLjEwODUzMDMgbCAtNS44NTI0MDM3LDIuNzk2MzM5NCBhIDEuMTE5MTI1NSwxLjEwOTk2NzEgMCAwIDAgLTAuNjA1NTI0LDAuNzUyOTc1OSBsIC0xLjQ0MzgyOCw2LjI4MTI4NDYgYSAxLjExOTEyNTUsMS4xMDk5NjcxIDAgMCAwIDAuMTUxOTQzLDAuODUxMDI4IDEuMTE5MTI1NSwxLjEwOTk2NzEgMCAwIDAgMC4wNjM2MiwwLjA4ODMyIGwgNC4wNTA4LDUuMDM2NTU1IGEgMS4xMTkxMjU1LDEuMTA5OTY3MSAwIDAgMCAwLjg3NDk3OSwwLjQxNzY1NCBsIDYuNDk2MTAxMSwtMC4wMDE1IGEgMS4xMTkxMjU1LDEuMTA5OTY3MSAwIDAgMCAwLjg3NDk3ODgsLTAuNDE2OTA2IEwgMS4zODE4ODcyLDE1LjE0OTQ1MyBBIDEuMTE5MTI1NSwxLjEwOTk2NzEgMCAwIDAgMS41OTgxOTg2LDE0LjIxMDEwNCBMIDAuMTUyMTI2NTcsNy45Mjg4MTU0IEEgMS4xMTkxMjU1LDEuMTA5OTY3MSAwIDAgMCAtMC40NTMzOTc5NCw3LjE3NTgzOTYgTCAtNi4zMDY1NDk2LDQuMzgwOTk3MSBBIDEuMTE5MTI1NSwxLjEwOTk2NzEgMCAwIDAgLTYuODQ5MjAxNSw0LjI3MjQ2NjggWiIgaWQ9InBhdGgzMDU1Ii8+JiN4YTsgICAgICA8cGF0aCB0ZXh0LWFuY2hvcj0ic3RhcnQiIHN0eWxlPSJjb2xvcjojMDAwMDAwO2ZvbnQtc3R5bGU6bm9ybWFsO2ZvbnQtdmFyaWFudDpub3JtYWw7Zm9udC13ZWlnaHQ6bm9ybWFsO2ZvbnQtc3RyZXRjaDpub3JtYWw7Zm9udC1zaXplOm1lZGl1bTtsaW5lLWhlaWdodDpub3JtYWw7Zm9udC1mYW1pbHk6U2FuczstaW5rc2NhcGUtZm9udC1zcGVjaWZpY2F0aW9uOlNhbnM7dGV4dC1pbmRlbnQ6MDt0ZXh0LWFsaWduOnN0YXJ0O3RleHQtZGVjb3JhdGlvbjpub25lO3RleHQtZGVjb3JhdGlvbi1saW5lOm5vbmU7bGV0dGVyLXNwYWNpbmc6bm9ybWFsO3dvcmQtc3BhY2luZzpub3JtYWw7dGV4dC10cmFuc2Zvcm06bm9uZTt3cml0aW5nLW1vZGU6bHItdGI7ZGlyZWN0aW9uOmx0cjtiYXNlbGluZS1zaGlmdDpiYXNlbGluZTtkaXNwbGF5OmlubGluZTtvdmVyZmxvdzp2aXNpYmxlO3Zpc2liaWxpdHk6dmlzaWJsZTtmaWxsOiNmZmZmZmY7ZmlsbC1vcGFjaXR5OjE7ZmlsbC1ydWxlOm5vbnplcm87c3Ryb2tlOm5vbmU7c3Ryb2tlLXdpZHRoOjA7c3Ryb2tlLW1pdGVybGltaXQ6NDtzdHJva2UtZGFzaGFycmF5Om5vbmU7bWFya2VyOm5vbmU7ZW5hYmxlLWJhY2tncm91bmQ6YWNjdW11bGF0ZSIgZD0iTSAtNi44NTIzNDM1LDMuODE3NjM3MiBBIDEuMTgxNDMwNCwxLjE3MTc2MiAwIDAgMCAtNy4zMDQ0Mjg0LDMuOTMyOTA0IGwgLTYuMTc4NzQyNiwyLjk1MTI3NTggYSAxLjE4MTQzMDQsMS4xNzE3NjIgMCAwIDAgLTAuNjM5MjA2LDAuNzk0ODkxIGwgLTEuNTIzOTE1LDYuNjMwODI4MiBhIDEuMTgxNDMwNCwxLjE3MTc2MiAwIDAgMCAwLjE2MDE3NSwwLjg5ODkzIDEuMTgxNDMwNCwxLjE3MTc2MiAwIDAgMCAwLjA2NzM2LDAuMDkyODEgbCA0LjI3NjA5NCw1LjMxNzIzNiBhIDEuMTgxNDMwNCwxLjE3MTc2MiAwIDAgMCAwLjkyMzYzLDAuNDQwODU4IGwgNi44NTc2MTg4LC0wLjAwMTUgYSAxLjE4MTQzMDQsMS4xNzE3NjIgMCAwIDAgMC45MjM2MzA4LC0wLjQ0MDExIGwgNC4yNzQ1OTY2LC01LjMxNzk4NSBhIDEuMTgxNDMwNCwxLjE3MTc2MiAwIDAgMCAwLjIyODI4OCwtMC45OTA5OTMgTCAwLjUzODk0NDM5LDcuNjc3NTczOCBBIDEuMTgxNDMwNCwxLjE3MTc2MiAwIDAgMCAtMC4xMDAyNjEwMSw2Ljg4MzQzMTMgTCAtNi4yNzkwMDM3LDMuOTMyMTU1NSBBIDEuMTgxNDMwNCwxLjE3MTc2MiAwIDAgMCAtNi44NTIzNDM1LDMuODE3NjM3MiBaIG0gMC4wMDI5OSwwLjQ1NTA3ODkgYSAxLjExOTEyNTUsMS4xMDk5NjcxIDAgMCAxIDAuNTQyNjUxNywwLjEwODUzMDMgbCA1Ljg1MzE1MTY5LDIuNzk0ODQyNSBBIDEuMTE5MTI1NSwxLjEwOTk2NzEgMCAwIDEgMC4xNTE5NzgxMSw3LjkyOTA2NDggTCAxLjU5ODA1MSwxNC4yMTAzNSBhIDEuMTE5MTI1NSwxLjEwOTk2NzEgMCAwIDEgLTAuMjE2MzEyMywwLjkzOTM0OCBsIC00LjA0OTMwMzIsNS4wMzczMDQgYSAxLjExOTEyNTUsMS4xMDk5NjcxIDAgMCAxIC0wLjg3NDk3ODksMC40MTY5MDYgbCAtNi40OTYxMDA2LDAuMDAxNSBhIDEuMTE5MTI1NSwxLjEwOTk2NzEgMCAwIDEgLTAuODc0OTc5LC0wLjQxNzY1MiBsIC00LjA1MDgsLTUuMDM2NTU0IGEgMS4xMTkxMjU1LDEuMTA5OTY3MSAwIDAgMSAtMC4wNjM2MiwtMC4wODgzMiAxLjExOTEyNTUsMS4xMDk5NjcxIDAgMCAxIC0wLjE1MTk0MiwtMC44NTEwMjggbCAxLjQ0MzgyNywtNi4yODEyODUzIGEgMS4xMTkxMjU1LDEuMTA5OTY3MSAwIDAgMSAwLjYwNTUyNCwtMC43NTI5NzU4IGwgNS44NTI0MDM2LC0yLjc5NjMzOTUgYSAxLjExOTEyNTUsMS4xMDk5NjcxIDAgMCAxIDAuNDI4ODgxOSwtMC4xMDg1MzAzIHoiIGlkPSJwYXRoMzA1NC0yLTkiLz4mI3hhOyAgICA8L2c+JiN4YTsgICAgPHRleHQgeG1sOnNwYWNlPSJwcmVzZXJ2ZSIgc3R5bGU9ImZvbnQtc3R5bGU6bm9ybWFsO2ZvbnQtd2VpZ2h0Om5vcm1hbDtmb250LXNpemU6MTAuNTgzMzMzMDJweDtsaW5lLWhlaWdodDo2LjYxNDU4MzQ5cHg7Zm9udC1mYW1pbHk6U2FucztsZXR0ZXItc3BhY2luZzowcHg7d29yZC1zcGFjaW5nOjBweDtmaWxsOiNmZmZmZmY7ZmlsbC1vcGFjaXR5OjE7c3Ryb2tlOm5vbmU7c3Ryb2tlLXdpZHRoOjAuMjY0NTgzMzJweDtzdHJva2UtbGluZWNhcDpidXR0O3N0cm9rZS1saW5lam9pbjptaXRlcjtzdHJva2Utb3BhY2l0eToxIiB4PSI5Ljk3OTk3NjciIHk9IjE2LjgxMTc3NSIgaWQ9InRleHQyMDY2Ij48dHNwYW4gaWQ9InRzcGFuMjA2NCIgeD0iOS45Nzk5NzY3IiB5PSIxNi44MTE3NzUiIHRleHQtYW5jaG9yPSJtaWRkbGUiIHN0eWxlPSJmb250LXN0eWxlOm5vcm1hbDtmb250LXZhcmlhbnQ6bm9ybWFsO2ZvbnQtd2VpZ2h0Om5vcm1hbDtmb250LXN0cmV0Y2g6bm9ybWFsO2ZvbnQtc2l6ZToyLjgyMjIyMjIzcHg7Zm9udC1mYW1pbHk6QXJpYWw7LWlua3NjYXBlLWZvbnQtc3BlY2lmaWNhdGlvbjonQXJpYWwsIE5vcm1hbCc7dGV4dC1hbGlnbjpjZW50ZXI7d3JpdGluZy1tb2RlOmxyLXRiO2ZpbGw6I2ZmZmZmZjtmaWxsLW9wYWNpdHk6MTtzdHJva2Utd2lkdGg6MC4yNjQ1ODMzMnB4Ij5zYzwvdHNwYW4+PC90ZXh0PiYjeGE7ICAgIDxwYXRoIGlkPSJwYXRoNjQ3MyIgZD0ibSA1LjQxOTg1OTUsMTAuNTI2NzUxIDAsMCBjIDAsMC4zNzY2NzYgMi4xMDM0NiwwLjY4MjAzMyA0LjY5ODIxOTUsMC42ODIwMzMgMi41OTQ3NTEsMCA0LjY5ODIxLC0wLjMwNTM1NyA0LjY5ODIxLC0wLjY4MjAzMyBsIDAsMS44NDUwNDUgYyAwLDAuMzc2Njc0IC0yLjEwMzQ1OSwwLjY4MjAzIC00LjY5ODIxLDAuNjgyMDMgLTIuNTk0NzU5NSwwIC00LjY5ODIxOTUsLTAuMzA1MzU2IC00LjY5ODIxOTUsLTAuNjgyMDMgeiIgc3R5bGU9ImZpbGw6IzMyNmNlNTtmaWxsLW9wYWNpdHk6MTtmaWxsLXJ1bGU6ZXZlbm9kZDtzdHJva2U6bm9uZTtzdHJva2Utd2lkdGg6MC4yMDc1NzQyODtzdHJva2UtbGluZWNhcDpzcXVhcmU7c3Ryb2tlLW1pdGVybGltaXQ6MTAiLz4mI3hhOyAgICA8cGF0aCBpZD0icGF0aDY0NzUiIGQ9Im0gNS40MTk4NTk1LDEwLjUyNjc1MSAwLDAgYyAwLC0wLjM3NjY3NCAyLjEwMzQ2LC0wLjY4MjAzMzQgNC42OTgyMTk1LC0wLjY4MjAzMzQgMi41OTQ3NTEsMCA0LjY5ODIxLDAuMzA1MzU5NCA0LjY5ODIxLDAuNjgyMDMzNCBsIDAsMCBjIDAsMC4zNzY2NzYgLTIuMTAzNDU5LDAuNjgyMDMzIC00LjY5ODIxLDAuNjgyMDMzIC0yLjU5NDc1OTUsMCAtNC42OTgyMTk1LC0wLjMwNTM1NyAtNC42OTgyMTk1LC0wLjY4MjAzMyB6IiBzdHlsZT0iZmlsbDojMzI2Y2U1O2ZpbGwtb3BhY2l0eToxO2ZpbGwtcnVsZTpldmVub2RkO3N0cm9rZTpub25lO3N0cm9rZS13aWR0aDowLjIwNzU3NDI4O3N0cm9rZS1saW5lY2FwOnNxdWFyZTtzdHJva2UtbWl0ZXJsaW1pdDoxMCIvPiYjeGE7ICAgIDxwYXRoIGlkPSJwYXRoNjQ3OSIgZD0ibSA1LjQxOTg1OTUsOC4yMTcwNDMzIDAsMCBjIDAsMC4zNzY2NzYgMi4xMDM0NiwwLjY4MjAzMTkgNC42OTgyMTk1LDAuNjgyMDMxOSAyLjU5NDc1MSwwIDQuNjk4MjEsLTAuMzA1MzU1OSA0LjY5ODIxLC0wLjY4MjAzMTkgbCAwLDEuODQ1MDQ1NyBjIDAsMC4zNzY2NzQgLTIuMTAzNDU5LDAuNjgyMDMgLTQuNjk4MjEsMC42ODIwMyAtMi41OTQ3NTk1LDAgLTQuNjk4MjE5NSwtMC4zMDUzNTYgLTQuNjk4MjE5NSwtMC42ODIwMyB6IiBzdHlsZT0iZmlsbDojZmZmZmZmO2ZpbGwtb3BhY2l0eToxO2ZpbGwtcnVsZTpldmVub2RkO3N0cm9rZTojZWVlZWVlO3N0cm9rZS13aWR0aDowLjIwNzU3NDI5O3N0cm9rZS1saW5lY2FwOnNxdWFyZTtzdHJva2UtbWl0ZXJsaW1pdDoxMDtzdHJva2Utb3BhY2l0eToxIi8+JiN4YTsgICAgPHBhdGggaWQ9InBhdGg2NDgxIiBkPSJtIDUuNDE5ODU5NSw4LjIxNzA0MzMgMCwwIGMgMCwtMC4zNzY2NzUgMi4xMDM0NiwtMC42ODIwMzI1IDQuNjk4MjE5NSwtMC42ODIwMzI1IDIuNTk0NzUxLDAgNC42OTgyMSwwLjMwNTM1NzUgNC42OTgyMSwwLjY4MjAzMjUgbCAwLDAgYyAwLDAuMzc2Njc2IC0yLjEwMzQ1OSwwLjY4MjAzMTkgLTQuNjk4MjEsMC42ODIwMzE5IC0yLjU5NDc1OTUsMCAtNC42OTgyMTk1LC0wLjMwNTM1NTkgLTQuNjk4MjE5NSwtMC42ODIwMzE5IHoiIHN0eWxlPSJmaWxsOiMzMjZjZTU7ZmlsbC1vcGFjaXR5OjE7ZmlsbC1ydWxlOmV2ZW5vZGQ7c3Ryb2tlOm5vbmU7c3Ryb2tlLXdpZHRoOjAuMjA3NTc0Mjg7c3Ryb2tlLWxpbmVjYXA6c3F1YXJlO3N0cm9rZS1taXRlcmxpbWl0OjEwIi8+JiN4YTsgICAgPHBhdGggc3R5bGU9ImZpbGw6IzMyNmNlNTtmaWxsLW9wYWNpdHk6MTtmaWxsLXJ1bGU6ZXZlbm9kZDtzdHJva2U6bm9uZTtzdHJva2Utd2lkdGg6MC4yMDc1NzQyODtzdHJva2UtbGluZWNhcDpzcXVhcmU7c3Ryb2tlLW1pdGVybGltaXQ6MTAiIGQ9Im0gNS40MTk5NTg1LDUuNjYxNjU5OCAwLDAgYyAwLC0wLjM3NjY3NCAyLjEwMzQ1NiwtMC42ODIwMzIgNC42OTgyMjM1LC0wLjY4MjAzMiAyLjU5NDc0NiwwIDQuNjk4MjEyLDAuMzA1MzU4IDQuNjk4MjEyLDAuNjgyMDMyIGwgMCwwIGMgMCwwLjM3NjY3NiAtMi4xMDM0NjYsMC42ODIwMzIgLTQuNjk4MjEyLDAuNjgyMDMyIC0yLjU5NDc2NzUsMCAtNC42OTgyMjM1LC0wLjMwNTM1NiAtNC42OTgyMjM1LC0wLjY4MjAzMiB6IiBpZD0icGF0aDY0ODciLz4mI3hhOyAgICA8ZyB0cmFuc2Zvcm09InRyYW5zbGF0ZSgtMC4xMDc4NzA1OSwwKSIgaWQ9ImczMzQ3Ij4mI3hhOyAgICAgIDxwYXRoIHN0eWxlPSJmaWxsOm5vbmU7ZmlsbC1ydWxlOmV2ZW5vZGQ7c3Ryb2tlOiNmZmZmZmY7c3Ryb2tlLXdpZHRoOjAuNDE0OTk5OTk7c3Ryb2tlLWxpbmVjYXA6YnV0dDtzdHJva2UtbGluZWpvaW46cm91bmQ7c3Ryb2tlLW1pdGVybGltaXQ6MTA7c3Ryb2tlLWRhc2hhcnJheToxLjY2MDAwMDAyLCAwLjQxNTtzdHJva2UtZGFzaG9mZnNldDowO3N0cm9rZS1vcGFjaXR5OjEiIGQ9Im0gMTQuODE2Mjg5LDEwLjg4MTEwMyAwLDAgYyAwLDAuMzc2Njc2IC0yLjEwMzQ1OSwwLjY4MjAzMyAtNC42OTgyMSwwLjY4MjAzMyAtMi41OTQ3NDk1LDAgLTQuNjk4MjE5NSwtMC4zMDUzNTcgLTQuNjk4MjE5NSwtMC42ODIwMzMgbCAwLDAgYyAwLC0wLjM3NjY3NSAyLjEwMzQ3LC0wLjY4MjAzMSA0LjY5ODIxOTUsLTAuNjgyMDMxIDIuNTk0NzUxLDAgNC42OTgyMSwwLjMwNTM1NiA0LjY5ODIxLDAuNjgyMDMxIGwgMCwxLjg0NTA0NiBjIDAsMC4zNzY2NzMgLTIuMTAzNDU5LDAuNjgyMDI5IC00LjY5ODIxLDAuNjgyMDI5IC0yLjU5NDc0OTUsMCAtNC42OTgyMTk1LC0wLjMwNTM1NiAtNC42OTgyMTk1LC0wLjY4MjAyOSBsIDAsLTEuODQ1MDQ2IiBpZD0icGF0aDY0NzciLz4mI3hhOyAgICAgIDxwYXRoIHN0eWxlPSJmaWxsOm5vbmU7ZmlsbC1ydWxlOmV2ZW5vZGQ7c3Ryb2tlOiNmZmZmZmY7c3Ryb2tlLXdpZHRoOjAuNDE0OTk5OTk7c3Ryb2tlLWxpbmVjYXA6YnV0dDtzdHJva2UtbGluZWpvaW46cm91bmQ7c3Ryb2tlLW1pdGVybGltaXQ6MTA7c3Ryb2tlLWRhc2hhcnJheTpub25lO3N0cm9rZS1vcGFjaXR5OjEiIGQ9Im0gMTQuODE2Mjg5LDguMjE3MDQzMyAwLDAgYyAwLDAuMzc2Njc2IC0yLjEwMzQ1OSwwLjY4MjAzMTkgLTQuNjk4MjEsMC42ODIwMzE5IC0yLjU5NDc0OTUsMCAtNC42OTgyMTk1LC0wLjMwNTM1NTkgLTQuNjk4MjE5NSwtMC42ODIwMzE5IGwgMCwwIGMgMCwtMC4zNzY2NzUgMi4xMDM0NywtMC42ODIwMzI1IDQuNjk4MjE5NSwtMC42ODIwMzI1IDIuNTk0NzUxLDAgNC42OTgyMSwwLjMwNTM1NzUgNC42OTgyMSwwLjY4MjAzMjUgbCAwLDEuODQ1MDQ1NyBjIDAsMC4zNzY2NzQgLTIuMTAzNDU5LDAuNjgyMDMgLTQuNjk4MjEsMC42ODIwMyAtMi41OTQ3NDk1LDAgLTQuNjk4MjE5NSwtMC4zMDUzNTYgLTQuNjk4MjE5NSwtMC42ODIwMyBsIDAsLTEuODQ1MDQ1NyIgaWQ9InBhdGg2NDgzIi8+JiN4YTsgICAgICA8cGF0aCBpZD0icGF0aDY0ODUiIGQ9Im0gNS40MTk5NTg1LDUuNjYxNjU5OCAwLDAgYyAwLDAuMzc2Njc2IDIuMTAzNDU2LDAuNjgyMDMyIDQuNjk4MjIzNSwwLjY4MjAzMiAyLjU5NDc0NiwwIDQuNjk4MjEyLC0wLjMwNTM1NiA0LjY5ODIxMiwtMC42ODIwMzIgbCAwLDEuODQ1MDQ1IGMgMCwwLjM3NjY3NDUgLTIuMTAzNDY2LDAuNjgyMDMwNSAtNC42OTgyMTIsMC42ODIwMzA1IC0yLjU5NDc2NzUsMCAtNC42OTgyMjM1LC0wLjMwNTM1NiAtNC42OTgyMjM1LC0wLjY4MjAzMDUgeiIgc3R5bGU9ImZpbGw6IzMyNmNlNTtmaWxsLW9wYWNpdHk6MTtmaWxsLXJ1bGU6ZXZlbm9kZDtzdHJva2U6bm9uZTtzdHJva2Utd2lkdGg6MC4yMDc1NzQyODtzdHJva2UtbGluZWNhcDpzcXVhcmU7c3Ryb2tlLW1pdGVybGltaXQ6MTAiLz4mI3hhOyAgICAgIDxwYXRoIGlkPSJwYXRoNjQ4OSIgZD0ibSAxNC44MTYzOTQsNS42NjE2NTk4IDAsMCBjIDAsMC4zNzY2NzYgLTIuMTAzNDY2LDAuNjgyMDMyIC00LjY5ODIxMiwwLjY4MjAzMiAtMi41OTQ3NTc1LDAgLTQuNjk4MjIzNSwtMC4zMDUzNTYgLTQuNjk4MjIzNSwtMC42ODIwMzIgbCAwLDAgYyAwLC0wLjM3NjY3NCAyLjEwMzQ2NiwtMC42ODIwMzIgNC42OTgyMjM1LC0wLjY4MjAzMiAyLjU5NDc0NiwwIDQuNjk4MjEyLDAuMzA1MzU4IDQuNjk4MjEyLDAuNjgyMDMyIGwgMCwxLjg0NTA0NSBjIDAsMC4zNzY2NzQ1IC0yLjEwMzQ2NiwwLjY4MjAzMDUgLTQuNjk4MjEyLDAuNjgyMDMwNSAtMi41OTQ3NTc1LDAgLTQuNjk4MjIzNSwtMC4zMDUzNTYgLTQuNjk4MjIzNSwtMC42ODIwMzA1IGwgMCwtMS44NDUwNDUiIHN0eWxlPSJmaWxsOm5vbmU7ZmlsbC1ydWxlOmV2ZW5vZGQ7c3Ryb2tlOiNmZmZmZmY7c3Ryb2tlLXdpZHRoOjAuNDE1MTQ4NTk7c3Ryb2tlLWxpbmVjYXA6YnV0dDtzdHJva2UtbGluZWpvaW46cm91bmQ7c3Ryb2tlLW1pdGVybGltaXQ6MTA7c3Ryb2tlLWRhc2hhcnJheToxLjY2MDU5NDMzLCAwLjQxNTE0ODU4O3N0cm9rZS1kYXNob2Zmc2V0OjA7c3Ryb2tlLW9wYWNpdHk6MSIvPiYjeGE7ICAgIDwvZz4mI3hhOyAgPC9nPiYjeGE7PC9zdmc+;" parent="1" vertex="1">
          <mxGeometry x="410" y="330" width="80" height="80" as="geometry" />
        </mxCell>
        <mxCell id="bJ2_P8YAT7gILBOLgxkf-7" value="" style="shape=image;verticalLabelPosition=bottom;labelBackgroundColor=default;verticalAlign=top;aspect=fixed;imageAspect=0;editableCssRules=.*;image=data:image/svg+xml,PHN2ZyB4bWxucz0iaHR0cDovL3d3dy53My5vcmcvMjAwMC9zdmciIGlkPSJzdmcxMzgyNiIgdmVyc2lvbj0iMS4xIiB2aWV3Qm94PSIxLjE5MjA5Mjg5NTUwNzgxMjVlLTcgLTMuNTc2Mjc4Njg2NTIzNDM3NWUtNyAxOC4wMzUzMzM2MzM0MjI4NSAxNy41MDAzNzU3NDc2ODA2NjQiIGhlaWdodD0iMTcuNTAwMzc1NzQ3NjgwNjY0IiB3aWR0aD0iMTguMDM1MzMzNjMzNDIyODUiPiYjeGE7ICA8ZGVmcyBpZD0iZGVmczEzODIwIi8+JiN4YTsgICYjeGE7ICA8bWV0YWRhdGEgaWQ9Im1ldGFkYXRhMTM4MjMiPiYjeGE7ICAgICYjeGE7ICAgICAgJiN4YTsgICAgICAgIGltYWdlL3N2Zyt4bWwmI3hhOyAgICAgICAgJiN4YTsgICAgICAgICYjeGE7ICAgICAgJiN4YTsgICAgJiN4YTsgIDwvbWV0YWRhdGE+JiN4YTsgIDxnIHRyYW5zZm9ybT0idHJhbnNsYXRlKC0wLjk5MjYyNjM4LC0xLjE3NDE4MSkiIGlkPSJsYXllcjEiPiYjeGE7ICAgIDxnIHRyYW5zZm9ybT0ibWF0cml4KDEuMDE0ODg4NywwLDAsMS4wMTQ4ODg3LDE2LjkwMjE0NiwtMi42OTg3MjYpIiBpZD0iZzcwIj4mI3hhOyAgICAgIDxwYXRoIHN0eWxlPSJmaWxsOiMzMjZjZTU7ZmlsbC1vcGFjaXR5OjE7c3Ryb2tlOm5vbmU7c3Ryb2tlLXdpZHRoOjA7c3Ryb2tlLW1pdGVybGltaXQ6NDtzdHJva2UtZGFzaGFycmF5Om5vbmU7c3Ryb2tlLW9wYWNpdHk6MSIgZD0ibSAtNi44NDkyMDE1LDQuMjcyNDY2OCBhIDEuMTE5MTI1NSwxLjEwOTk2NzEgMCAwIDAgLTAuNDI4ODgxOCwwLjEwODUzMDMgbCAtNS44NTI0MDM3LDIuNzk2MzM5NCBhIDEuMTE5MTI1NSwxLjEwOTk2NzEgMCAwIDAgLTAuNjA1NTI0LDAuNzUyOTc1OSBsIC0xLjQ0MzgyOCw2LjI4MTI4NDYgYSAxLjExOTEyNTUsMS4xMDk5NjcxIDAgMCAwIDAuMTUxOTQzLDAuODUxMDI4IDEuMTE5MTI1NSwxLjEwOTk2NzEgMCAwIDAgMC4wNjM2MiwwLjA4ODMyIGwgNC4wNTA4LDUuMDM2NTU1IGEgMS4xMTkxMjU1LDEuMTA5OTY3MSAwIDAgMCAwLjg3NDk3OSwwLjQxNzY1NCBsIDYuNDk2MTAxMSwtMC4wMDE1IGEgMS4xMTkxMjU1LDEuMTA5OTY3MSAwIDAgMCAwLjg3NDk3ODgsLTAuNDE2OTA2IEwgMS4zODE4ODcyLDE1LjE0OTQ1MyBBIDEuMTE5MTI1NSwxLjEwOTk2NzEgMCAwIDAgMS41OTgxOTg2LDE0LjIxMDEwNCBMIDAuMTUyMTI2NTcsNy45Mjg4MTU0IEEgMS4xMTkxMjU1LDEuMTA5OTY3MSAwIDAgMCAtMC40NTMzOTc5NCw3LjE3NTgzOTYgTCAtNi4zMDY1NDk2LDQuMzgwOTk3MSBBIDEuMTE5MTI1NSwxLjEwOTk2NzEgMCAwIDAgLTYuODQ5MjAxNSw0LjI3MjQ2NjggWiIgaWQ9InBhdGgzMDU1Ii8+JiN4YTsgICAgICA8cGF0aCB0ZXh0LWFuY2hvcj0ic3RhcnQiIHN0eWxlPSJjb2xvcjojMDAwMDAwO2ZvbnQtc3R5bGU6bm9ybWFsO2ZvbnQtdmFyaWFudDpub3JtYWw7Zm9udC13ZWlnaHQ6bm9ybWFsO2ZvbnQtc3RyZXRjaDpub3JtYWw7Zm9udC1zaXplOm1lZGl1bTtsaW5lLWhlaWdodDpub3JtYWw7Zm9udC1mYW1pbHk6U2FuczstaW5rc2NhcGUtZm9udC1zcGVjaWZpY2F0aW9uOlNhbnM7dGV4dC1pbmRlbnQ6MDt0ZXh0LWFsaWduOnN0YXJ0O3RleHQtZGVjb3JhdGlvbjpub25lO3RleHQtZGVjb3JhdGlvbi1saW5lOm5vbmU7bGV0dGVyLXNwYWNpbmc6bm9ybWFsO3dvcmQtc3BhY2luZzpub3JtYWw7dGV4dC10cmFuc2Zvcm06bm9uZTt3cml0aW5nLW1vZGU6bHItdGI7ZGlyZWN0aW9uOmx0cjtiYXNlbGluZS1zaGlmdDpiYXNlbGluZTtkaXNwbGF5OmlubGluZTtvdmVyZmxvdzp2aXNpYmxlO3Zpc2liaWxpdHk6dmlzaWJsZTtmaWxsOiNmZmZmZmY7ZmlsbC1vcGFjaXR5OjE7ZmlsbC1ydWxlOm5vbnplcm87c3Ryb2tlOm5vbmU7c3Ryb2tlLXdpZHRoOjA7c3Ryb2tlLW1pdGVybGltaXQ6NDtzdHJva2UtZGFzaGFycmF5Om5vbmU7bWFya2VyOm5vbmU7ZW5hYmxlLWJhY2tncm91bmQ6YWNjdW11bGF0ZSIgZD0iTSAtNi44NTIzNDM1LDMuODE3NjM3MiBBIDEuMTgxNDMwNCwxLjE3MTc2MiAwIDAgMCAtNy4zMDQ0Mjg0LDMuOTMyOTA0IGwgLTYuMTc4NzQyNiwyLjk1MTI3NTggYSAxLjE4MTQzMDQsMS4xNzE3NjIgMCAwIDAgLTAuNjM5MjA2LDAuNzk0ODkxIGwgLTEuNTIzOTE1LDYuNjMwODI4MiBhIDEuMTgxNDMwNCwxLjE3MTc2MiAwIDAgMCAwLjE2MDE3NSwwLjg5ODkzIDEuMTgxNDMwNCwxLjE3MTc2MiAwIDAgMCAwLjA2NzM2LDAuMDkyODEgbCA0LjI3NjA5NCw1LjMxNzIzNiBhIDEuMTgxNDMwNCwxLjE3MTc2MiAwIDAgMCAwLjkyMzYzLDAuNDQwODU4IGwgNi44NTc2MTg4LC0wLjAwMTUgYSAxLjE4MTQzMDQsMS4xNzE3NjIgMCAwIDAgMC45MjM2MzA4LC0wLjQ0MDExIGwgNC4yNzQ1OTY2LC01LjMxNzk4NSBhIDEuMTgxNDMwNCwxLjE3MTc2MiAwIDAgMCAwLjIyODI4OCwtMC45OTA5OTMgTCAwLjUzODk0NDM5LDcuNjc3NTczOCBBIDEuMTgxNDMwNCwxLjE3MTc2MiAwIDAgMCAtMC4xMDAyNjEwMSw2Ljg4MzQzMTMgTCAtNi4yNzkwMDM3LDMuOTMyMTU1NSBBIDEuMTgxNDMwNCwxLjE3MTc2MiAwIDAgMCAtNi44NTIzNDM1LDMuODE3NjM3MiBaIG0gMC4wMDI5OSwwLjQ1NTA3ODkgYSAxLjExOTEyNTUsMS4xMDk5NjcxIDAgMCAxIDAuNTQyNjUxNywwLjEwODUzMDMgbCA1Ljg1MzE1MTY5LDIuNzk0ODQyNSBBIDEuMTE5MTI1NSwxLjEwOTk2NzEgMCAwIDEgMC4xNTE5NzgxMSw3LjkyOTA2NDggTCAxLjU5ODA1MSwxNC4yMTAzNSBhIDEuMTE5MTI1NSwxLjEwOTk2NzEgMCAwIDEgLTAuMjE2MzEyMywwLjkzOTM0OCBsIC00LjA0OTMwMzIsNS4wMzczMDQgYSAxLjExOTEyNTUsMS4xMDk5NjcxIDAgMCAxIC0wLjg3NDk3ODksMC40MTY5MDYgbCAtNi40OTYxMDA2LDAuMDAxNSBhIDEuMTE5MTI1NSwxLjEwOTk2NzEgMCAwIDEgLTAuODc0OTc5LC0wLjQxNzY1MiBsIC00LjA1MDgsLTUuMDM2NTU0IGEgMS4xMTkxMjU1LDEuMTA5OTY3MSAwIDAgMSAtMC4wNjM2MiwtMC4wODgzMiAxLjExOTEyNTUsMS4xMDk5NjcxIDAgMCAxIC0wLjE1MTk0MiwtMC44NTEwMjggbCAxLjQ0MzgyNywtNi4yODEyODUzIGEgMS4xMTkxMjU1LDEuMTA5OTY3MSAwIDAgMSAwLjYwNTUyNCwtMC43NTI5NzU4IGwgNS44NTI0MDM2LC0yLjc5NjMzOTUgYSAxLjExOTEyNTUsMS4xMDk5NjcxIDAgMCAxIDAuNDI4ODgxOSwtMC4xMDg1MzAzIHoiIGlkPSJwYXRoMzA1NC0yLTkiLz4mI3hhOyAgICA8L2c+JiN4YTsgICAgPHRleHQgeG1sOnNwYWNlPSJwcmVzZXJ2ZSIgc3R5bGU9ImZvbnQtc3R5bGU6bm9ybWFsO2ZvbnQtd2VpZ2h0Om5vcm1hbDtmb250LXNpemU6MTAuNTgzMzMzMDJweDtsaW5lLWhlaWdodDo2LjYxNDU4MzQ5cHg7Zm9udC1mYW1pbHk6U2FucztsZXR0ZXItc3BhY2luZzowcHg7d29yZC1zcGFjaW5nOjBweDtmaWxsOiNmZmZmZmY7ZmlsbC1vcGFjaXR5OjE7c3Ryb2tlOm5vbmU7c3Ryb2tlLXdpZHRoOjAuMjY0NTgzMzJweDtzdHJva2UtbGluZWNhcDpidXR0O3N0cm9rZS1saW5lam9pbjptaXRlcjtzdHJva2Utb3BhY2l0eToxIiB4PSIxMC4wMTcxODMiIHk9IjE2LjgxMTc3NSIgaWQ9InRleHQyMDY2Ij48dHNwYW4gaWQ9InRzcGFuMjA2NCIgeD0iMTAuMDE3MTgzIiB5PSIxNi44MTE3NzUiIHRleHQtYW5jaG9yPSJtaWRkbGUiIHN0eWxlPSJmb250LXN0eWxlOm5vcm1hbDtmb250LXZhcmlhbnQ6bm9ybWFsO2ZvbnQtd2VpZ2h0Om5vcm1hbDtmb250LXN0cmV0Y2g6bm9ybWFsO2ZvbnQtc2l6ZToyLjgyMjIyMjIzcHg7Zm9udC1mYW1pbHk6QXJpYWw7LWlua3NjYXBlLWZvbnQtc3BlY2lmaWNhdGlvbjonQXJpYWwsIE5vcm1hbCc7dGV4dC1hbGlnbjpjZW50ZXI7d3JpdGluZy1tb2RlOmxyLXRiO2ZpbGw6I2ZmZmZmZjtmaWxsLW9wYWNpdHk6MTtzdHJva2Utd2lkdGg6MC4yNjQ1ODMzMnB4Ij5wb2Q8L3RzcGFuPjwvdGV4dD4mI3hhOyAgICA8ZyB0cmFuc2Zvcm09InRyYW5zbGF0ZSgwLjEyNzY2NjYxLDApIiBpZD0iZzMzNDEiPiYjeGE7ICAgICAgPHBhdGggaWQ9InBhdGg5MTAiIGQ9Ik0gNi4yNjE3OTE0LDcuMDM2MDg2IDkuODgyNjMxNyw1Ljk4NjA4NyAxMy41MDM0NjIsNy4wMzYwODYgOS44ODI2MzE3LDguMDg2MDg3IFoiIHN0eWxlPSJmaWxsOiNmZmZmZmY7ZmlsbC1ydWxlOmV2ZW5vZGQ7c3Ryb2tlOm5vbmU7c3Ryb2tlLXdpZHRoOjAuMjY0NTgzMzI7c3Ryb2tlLWxpbmVjYXA6c3F1YXJlO3N0cm9rZS1taXRlcmxpbWl0OjEwIi8+JiN4YTsgICAgICA8cGF0aCBpZD0icGF0aDkxMiIgZD0ibSA2LjI2MTc5MTQsNy40MzgxNyAwLDMuODUyNzc4IDMuMzczNjEwMywxLjg2ODc0OSAwLjAxNjcsLTQuNzEzMTkzIHoiIHN0eWxlPSJmaWxsOiNmZmZmZmY7ZmlsbC1ydWxlOmV2ZW5vZGQ7c3Ryb2tlOm5vbmU7c3Ryb2tlLXdpZHRoOjAuMjY0NTgzMzI7c3Ryb2tlLWxpbmVjYXA6c3F1YXJlO3N0cm9rZS1taXRlcmxpbWl0OjEwIi8+JiN4YTsgICAgICA8cGF0aCBpZD0icGF0aDkxNCIgZD0ibSAxMy41MDM0NjIsNy40MzgxNyAwLDMuODUyNzc4IC0zLjM3MzYxLDEuODY4NzQ5IC0wLjAxNjcsLTQuNzEzMTkzIHoiIHN0eWxlPSJmaWxsOiNmZmZmZmY7ZmlsbC1ydWxlOmV2ZW5vZGQ7c3Ryb2tlOm5vbmU7c3Ryb2tlLXdpZHRoOjAuMjY0NTgzMzI7c3Ryb2tlLWxpbmVjYXA6c3F1YXJlO3N0cm9rZS1taXRlcmxpbWl0OjEwIi8+JiN4YTsgICAgPC9nPiYjeGE7ICA8L2c+JiN4YTs8L3N2Zz4=;" parent="1" vertex="1">
          <mxGeometry x="160" y="440" width="80" height="80" as="geometry" />
        </mxCell>
        <mxCell id="bJ2_P8YAT7gILBOLgxkf-8" value="" style="endArrow=none;dashed=1;html=1;dashPattern=1 3;strokeWidth=2;rounded=0;entryX=0;entryY=0.5;entryDx=0;entryDy=0;" parent="1" source="bJ2_P8YAT7gILBOLgxkf-7" target="bJ2_P8YAT7gILBOLgxkf-4" edge="1">
          <mxGeometry width="50" height="50" relative="1" as="geometry">
            <mxPoint x="390" y="770" as="sourcePoint" />
            <mxPoint x="440" y="720" as="targetPoint" />
          </mxGeometry>
        </mxCell>
        <mxCell id="bJ2_P8YAT7gILBOLgxkf-9" value="" style="endArrow=classic;html=1;rounded=0;entryX=0;entryY=0.5;entryDx=0;entryDy=0;" parent="1" source="bJ2_P8YAT7gILBOLgxkf-4" target="bJ2_P8YAT7gILBOLgxkf-5" edge="1">
          <mxGeometry width="50" height="50" relative="1" as="geometry">
            <mxPoint x="390" y="770" as="sourcePoint" />
            <mxPoint x="440" y="720" as="targetPoint" />
          </mxGeometry>
        </mxCell>
        <mxCell id="lYr199nnzOlQ2Ln_R-46-9" style="edgeStyle=orthogonalEdgeStyle;rounded=0;orthogonalLoop=1;jettySize=auto;html=1;" edge="1" parent="1">
          <mxGeometry relative="1" as="geometry">
            <mxPoint x="870" y="480" as="targetPoint" />
            <mxPoint x="870" y="480" as="sourcePoint" />
          </mxGeometry>
        </mxCell>
        <mxCell id="bJ2_P8YAT7gILBOLgxkf-12" value="운영자" style="shape=umlActor;verticalLabelPosition=bottom;verticalAlign=top;html=1;outlineConnect=0;" parent="1" vertex="1">
          <mxGeometry x="870" y="450" width="30" height="60" as="geometry" />
        </mxCell>
        <mxCell id="bJ2_P8YAT7gILBOLgxkf-13" value="" style="endArrow=classic;html=1;rounded=0;fontFamily=Helvetica;fontSize=12;fontColor=default;labelBackgroundColor=default;entryX=1;entryY=0.5;entryDx=0;entryDy=0;edgeStyle=orthogonalEdgeStyle;" parent="1" source="bJ2_P8YAT7gILBOLgxkf-12" target="lYr199nnzOlQ2Ln_R-46-1" edge="1">
          <mxGeometry width="50" height="50" relative="1" as="geometry">
            <mxPoint x="390" y="460" as="sourcePoint" />
            <mxPoint x="440" y="410" as="targetPoint" />
          </mxGeometry>
        </mxCell>
        <mxCell id="bJ2_P8YAT7gILBOLgxkf-14" value="&lt;div&gt;&lt;br&gt;&lt;/div&gt;&lt;div&gt;&lt;br&gt;&lt;/div&gt;" style="edgeLabel;html=1;align=center;verticalAlign=middle;resizable=0;points=[];strokeColor=default;fontFamily=Helvetica;fontSize=12;fontColor=default;labelBackgroundColor=default;fillColor=default;" parent="bJ2_P8YAT7gILBOLgxkf-13" vertex="1" connectable="0">
          <mxGeometry x="0.0453" y="3" relative="1" as="geometry">
            <mxPoint as="offset" />
          </mxGeometry>
        </mxCell>
        <mxCell id="bJ2_P8YAT7gILBOLgxkf-15" value="" style="edgeLabel;html=1;align=center;verticalAlign=middle;resizable=0;points=[];strokeColor=default;fontFamily=Helvetica;fontSize=12;fontColor=default;labelBackgroundColor=default;fillColor=default;" parent="bJ2_P8YAT7gILBOLgxkf-13" vertex="1" connectable="0">
          <mxGeometry x="-0.144" y="2" relative="1" as="geometry">
            <mxPoint as="offset" />
          </mxGeometry>
        </mxCell>
        <mxCell id="lYr199nnzOlQ2Ln_R-46-1" value="EBS Volume" style="shape=image;verticalLabelPosition=bottom;labelBackgroundColor=default;verticalAlign=top;aspect=fixed;imageAspect=0;image=data:image/png,iVBORw0KGgoAAAANSUhEUgAAACQAAAAkCAYAAADhAJiYAAAAAXNSR0IArs4c6QAAAIRlWElmTU0AKgAAAAgABQESAAMAAAABAAEAAAEaAAUAAAABAAAASgEbAAUAAAABAAAAUgEoAAMAAAABAAIAAIdpAAQAAAABAAAAWgAAAAAAAABIAAAAAQAAAEgAAAABAAOgAQADAAAAAQABAACgAgAEAAAAAQAAACSgAwAEAAAAAQAAACQAAAAA2TSO/wAAAAlwSFlzAAALEwAACxMBAJqcGAAAAftJREFUWAntWD1LA0EQnbmLGBENmg9QsLK1EAUbC3+CpInYaIKgIIhYRGIstDLiF2JhJSZBhMTKxt5GLPwDIraCJCoRkSQab5xCQXJ7tzFewGIDR273zRvevH0HlwD8sw/Womcp7ZtBQ+uqpVZUQ2gY8AaZxPTDjQj/uScVFE/75wFw9yepnnsCuv2o0MDG1MOLHd9lBy6mvUNEsMk1p4lwLmhXa4ctpQLDiHCu63jAdWN2tZoVGNv3dOikZ9mduyK9RazqatnnYS6IcBkRQ7FkYNaOYylIa21O8lTdRB+h3UihYNekFoxFbQLRGffciR76Bqw4QkHxlG+BCaNEFF2PPF5ZkX+5T8VKeQKBck0ansztdbaL+KZQx1K+QQS85Oud83MkIv1pD6mPj26Yh80kwvnx6l6mUCNRDyDm+anQAGG0muDEmsXcczb9TvRqeA/zkaW9QQT9GAiE+XJMEdJ1YjLfX91PcGR6Lz8JLQbANiK9VxOcWeMIZ3RQ1Msk6Luoks+tbEXh9Xvt5Hc85V/jnAoFNfZY6phCCZKZphxSDskckOEqQ8ohmQMyXGVIOSRzQIarDCmHZA7IcMt36nJzpw6rTw3JGPEbvunnzpdSsyDi/3JQgzaP6znuCcgGqh8nKInIJkEljbJuIDcZpIsIju0h3DrWq5GNPgEh1oaZ9+r7/AAAAABJRU5ErkJggg==;" vertex="1" parent="1">
          <mxGeometry x="640" y="360" width="80" height="80" as="geometry" />
        </mxCell>
        <mxCell id="lYr199nnzOlQ2Ln_R-46-2" value="EFS Filesystem" style="shape=image;verticalLabelPosition=bottom;labelBackgroundColor=default;verticalAlign=top;aspect=fixed;imageAspect=0;image=data:image/png,iVBORw0KGgoAAAANSUhEUgAAACQAAAAkCAYAAADhAJiYAAAAAXNSR0IArs4c6QAAAIRlWElmTU0AKgAAAAgABQESAAMAAAABAAEAAAEaAAUAAAABAAAASgEbAAUAAAABAAAAUgEoAAMAAAABAAIAAIdpAAQAAAABAAAAWgAAAAAAAABIAAAAAQAAAEgAAAABAAOgAQADAAAAAQABAACgAgAEAAAAAQAAACSgAwAEAAAAAQAAACQAAAAA2TSO/wAAAAlwSFlzAAALEwAACxMBAJqcGAAABklJREFUWAntWH1sVEUQn93Xu35qob07EBS0FjQaJQYj1QgIQWoRDQFag1FpY6ASPwIG5A4Sg4lWRAETYhWV9iofmpRIAAWFVFAUg9JEhUA0+JUgFHoFSlvau95742/vuo+765UEuP7HJtfZnf3N7O/Nzs7bV6Jr7dIREInTvpq8O8gwqpl5kxDiSS3NkDVvxZyWo7H4V9a5rjPSxHaNuShF1fLy07tisarv83u2EFvfwu9kJrEdqhlE/Omb5c3rNDZNd7QU0phAJMYLEunQFWlpOIyHMI4jJAWPESRtLAmRgSccA2K/ABtHyFebfzvmJrMUw+H/TmJ2YTyaBQVpGdXiZ8GGoIs2X02OWxhZP8PZEGixlujWc3gKJxOZeLITwa7Oe1dWtgV8dZ5DgqmABWcCG7SxgvGQQj3ov2Eyy1bMbvkJkdkKH+Nhn0tMXRrLxAZ0DpD7D7+FVRWBz5RhpFndjpAheQ+eslQw11eVn67Qc746tx/MZ8BoTyjoCEX0bO1D2POw+K/APhCDXQLsG0zWd0ZQnIvqrUYsPAJkTGDzNdbr98wAdjPWPGgSnVB6qSelo9sJ5yUgk6l1sRIRgl6UONMVDk2Ih7GIKxYT2xcsJ5sOC4RVE/cTq61K3uD7QUF8k5q1CbW3O1XYt2C7LiQ144h+i5GWHt0epi8Q8tNJsVAiN7ZJ0wioefT34vdXX1hEvgFZ8o+at7cs3RHKYDJmQZeNp7/RW+t+RAGiTQwlwTnIr1mG6HoVujYQn4lwD8ZybfFYGqls8MRPWFL40T2GXCsWgkbiAYKxWEl8j0JiborJ9CWwP9iEpDOjE4pa/NRCk4QUk9C3G8J6HIPNrZ2ZwLUr/QZm8Sic3SUl7bSB6ADbgT81OEBNSg9y2zFWCTwO+Dhsj90nzOE/otgejRbemvyJ0jAakJTrEcantSSyJlbNDuzROCUX1OUPzSTjuMZoaVnWvOUVgQ9isaXLyFl4i7sJ0foGFEtAeiuiXgaia1CHFmisHSGtMIU8glDOJ5YHYdBoy1DnEY3RMtzaEqBcdy8sIrJXY2gZybk3kIExdkwstdg6ikg1IG8OI6/2C9NstLHoYHf6r/n8rmosPgfLxDw4f3+unUqqn2+O7Hvi6jHAxKmrGy9eO3CYEHIeAlOP0KjKrXJpAA72ogE55jQMNyRb4ZIRKq+ljCEyfyazgdN0uc0aBEILLYvLllc01yvrJR9lDyJndhMIfo7t+zHiUVhtnV207d3KwEk17jNCpaVkDBEelcRFOBlX0JCJSBS2KLKQchA619Hu9GSdx0GfjnBNjzqVlJVBr+NFPWrFs4ETfRK6tdh9N4yKkISV4ebAxitgRMF0Cq95CS/PnvbOIuqYu7bZdf15ilZ76A3XwAJDOn5LkwJvfloTR2hxjadYSl6KCYlqlav84Oi/4HC7n1H9y20OGPj8Sazc0Alq5Y7QU3/uOHtkxFSPquaR9eIIgcxtOBVjUSMOwAR7TU0wjFirv6lqSO4MMJoiMh3F8BnJL+07Sgi1wjss92ZmOhnJF6Y6DvNuDUqltARf+PurwKnCqZ5WXHLULaE3Ie9wz3Mo/+/phUGqWjiuKJO1iz4lvHJhiWsCAAeQ9fa1RRtEIsTUvY8I9yTiHTgXm/Rkf0hJciUydBHW2Y8H9w4em5cdu06E0FsVZw/hVrcb7Ee1BAPTPqykmNtiLPzq+95aVwFe3K/h3tWAs5OWnSPui/Vq34fAeBVO1tC8dFdZLCDV/e5Q8H115WUhxqg6BXJx22YTQjX9Gtt7FEXLfvOmmozyp+7jOOLrccoeB7HTONXJCQGLqsqrARi92O8e1x9ktE8zZK7GchkoKYNwsou0Xkk7QmpwkgJgTgHcpF5W4/5qke87JuwI4tRTgPVacYT8FdQFxtWI1WPej92FGtQfUrC5KpnfOEIKILo7qvF5040bzPxkBqnSVVWc2Y03weFEf70IVc3pOIX93YRYlnurcwcmGqRyrHI20V8vQgpgcXg1alI2ZTvnJhqkctzR1rwR1RgBuNii77KL40hPF0qwfRFfl8cSplM6xKd4I0rNFO00KSE1KTj8NgrpLpDarMH9I7EX0XZeCXvUo4wT3prcAmnJrDhlPwzwHxHr2M4zv9fXEz7xr7VLR+B/Ba9M/F1UunUAAAAASUVORK5CYII=;" vertex="1" parent="1">
          <mxGeometry x="640" y="505" width="80" height="80" as="geometry" />
        </mxCell>
        <mxCell id="lYr199nnzOlQ2Ln_R-46-3" value="" style="endArrow=classic;html=1;rounded=0;fontFamily=Helvetica;fontSize=12;fontColor=default;labelBackgroundColor=default;entryX=1;entryY=0.5;entryDx=0;entryDy=0;edgeStyle=orthogonalEdgeStyle;" edge="1" parent="1" source="bJ2_P8YAT7gILBOLgxkf-12" target="lYr199nnzOlQ2Ln_R-46-2">
          <mxGeometry width="50" height="50" relative="1" as="geometry">
            <mxPoint x="990" y="553" as="sourcePoint" />
            <mxPoint x="840" y="480" as="targetPoint" />
          </mxGeometry>
        </mxCell>
        <mxCell id="lYr199nnzOlQ2Ln_R-46-4" value="&lt;div&gt;&lt;br&gt;&lt;/div&gt;&lt;div&gt;&lt;br&gt;&lt;/div&gt;" style="edgeLabel;html=1;align=center;verticalAlign=middle;resizable=0;points=[];strokeColor=default;fontFamily=Helvetica;fontSize=12;fontColor=default;labelBackgroundColor=default;fillColor=default;" vertex="1" connectable="0" parent="lYr199nnzOlQ2Ln_R-46-3">
          <mxGeometry x="0.0453" y="3" relative="1" as="geometry">
            <mxPoint as="offset" />
          </mxGeometry>
        </mxCell>
        <mxCell id="lYr199nnzOlQ2Ln_R-46-5" value="" style="edgeLabel;html=1;align=center;verticalAlign=middle;resizable=0;points=[];strokeColor=default;fontFamily=Helvetica;fontSize=12;fontColor=default;labelBackgroundColor=default;fillColor=default;" vertex="1" connectable="0" parent="lYr199nnzOlQ2Ln_R-46-3">
          <mxGeometry x="-0.144" y="2" relative="1" as="geometry">
            <mxPoint as="offset" />
          </mxGeometry>
        </mxCell>
        <mxCell id="lYr199nnzOlQ2Ln_R-46-6" value="" style="endArrow=none;dashed=1;html=1;dashPattern=1 3;strokeWidth=2;rounded=0;entryX=0;entryY=0.5;entryDx=0;entryDy=0;exitX=1;exitY=0.5;exitDx=0;exitDy=0;edgeStyle=orthogonalEdgeStyle;" edge="1" parent="1" source="bJ2_P8YAT7gILBOLgxkf-5" target="lYr199nnzOlQ2Ln_R-46-1">
          <mxGeometry width="50" height="50" relative="1" as="geometry">
            <mxPoint x="400" y="610" as="sourcePoint" />
            <mxPoint x="480" y="610" as="targetPoint" />
          </mxGeometry>
        </mxCell>
        <mxCell id="lYr199nnzOlQ2Ln_R-46-7" value="" style="endArrow=none;dashed=1;html=1;dashPattern=1 3;strokeWidth=2;rounded=0;entryX=0;entryY=0.5;entryDx=0;entryDy=0;exitX=1;exitY=0.5;exitDx=0;exitDy=0;edgeStyle=orthogonalEdgeStyle;" edge="1" parent="1" source="bJ2_P8YAT7gILBOLgxkf-5" target="lYr199nnzOlQ2Ln_R-46-2">
          <mxGeometry width="50" height="50" relative="1" as="geometry">
            <mxPoint x="600" y="700" as="sourcePoint" />
            <mxPoint x="680" y="620" as="targetPoint" />
          </mxGeometry>
        </mxCell>
        <mxCell id="7y3D_uaNLhB5Zq-RvO3T-1" value="Access Mode&lt;div&gt;&lt;br&gt;&lt;/div&gt;&lt;div&gt;- ReadWriteOnce&lt;/div&gt;&lt;div&gt;- ReadOnlyMany&lt;/div&gt;&lt;div&gt;- ReadWriteMany&lt;/div&gt;&lt;div&gt;- ReadWriteOncePod&lt;/div&gt;" style="text;html=1;align=center;verticalAlign=middle;whiteSpace=wrap;rounded=0;" vertex="1" parent="1">
          <mxGeometry x="460" y="554.5" width="120" height="60" as="geometry" />
        </mxCell>
      </root>
    </mxGraphModel>
  </diagram>
</mxfile>
